<svg xmlns="http://www.w3.org/2000/svg" version="1.1" xmlns:xlink="http://www.w3.org/1999/xlink" xmlns:svgjs="http://svgjs.com/svgjs" width="1440" height="560" preserveAspectRatio="none" viewBox="0 0 1440 560"><g mask="url(&quot;#SvgjsMask1083&quot;)" fill="none"><rect width="1440" height="560" x="0" y="0" fill="url(#SvgjsLinearGradient1084)"></rect><path d="M1216.548,530.817C1247.876,530.72,1281.081,522.355,1296.667,495.179C1312.195,468.105,1303.024,435.025,1286.768,408.381C1271.297,383.023,1246.238,364.805,1216.548,363.86C1185.149,362.861,1154.579,376.883,1138.135,403.65C1120.918,431.675,1118.303,467.682,1135.566,495.678C1152.12,522.524,1185.009,530.915,1216.548,530.817" fill="rgba(28, 83, 142, 0.4)" class="triangle-float2"></path><path d="M536.657,317.569C578.656,320.045,621.606,306.974,645.342,272.237C672.316,232.76,683.177,180.095,658.623,139.07C634.545,98.841,583.353,86.445,536.657,90.643C496.902,94.217,465.995,122.644,447.553,158.043C430.622,190.541,430.24,228.618,448.109,260.61C466.452,293.45,499.107,315.355,536.657,317.569" fill="rgba(28, 83, 142, 0.4)" class="triangle-float1"></path><path d="M329.933,489.288C348.551,489.31,367.709,484.126,377.674,468.399C388.29,451.645,388.816,429.729,378.342,412.886C368.367,396.846,348.793,390.585,329.933,391.63C312.905,392.573,298.987,403.287,289.998,417.78C280.38,433.287,273.491,452.354,282.388,468.286C291.442,484.499,311.363,489.266,329.933,489.288" fill="rgba(28, 83, 142, 0.4)" class="triangle-float1"></path><path d="M1234.07 321.62 a183.19 183.19 0 1 0 366.38 0 a183.19 183.19 0 1 0 -366.38 0z" fill="rgba(28, 83, 142, 0.4)" class="triangle-float3"></path><path d="M1405.650532695671 7.627021553219151L1288.6651184985722 109.32089063269527 1507.3444017751472 124.61243575031796z" fill="rgba(28, 83, 142, 0.4)" class="triangle-float1"></path><path d="M33.233,543.419C58.517,543.915,86.771,542.118,100.287,520.744C114.466,498.323,108.897,468.93,94.379,446.727C81.186,426.551,57.339,418.195,33.233,418.196C9.129,418.197,-15.107,426.306,-27.903,446.733C-41.46,468.375,-43.06,496.612,-29.411,518.197C-16.517,538.588,9.112,542.945,33.233,543.419" fill="rgba(28, 83, 142, 0.4)" class="triangle-float1"></path><path d="M1152.194673058123 491.2874789834701L1215.5747194027383 483.5053878230408 1172.2115594897866 392.32636388633233z" fill="rgba(28, 83, 142, 0.4)" class="triangle-float2"></path><path d="M1278.356659778618 518.341317564723L1294.5321404635379 416.2133518897127 1192.4041747885276 400.03787120479285 1176.2286941036077 502.16583687980307z" fill="rgba(28, 83, 142, 0.4)" class="triangle-float2"></path><path d="M365.01 184.47 a132.51 132.51 0 1 0 265.02 0 a132.51 132.51 0 1 0 -265.02 0z" fill="rgba(28, 83, 142, 0.4)" class="triangle-float2"></path></g><defs><mask id="SvgjsMask1083"><rect width="1440" height="560" fill="#ffffff"></rect></mask><linearGradient x1="15.28%" y1="-39.29%" x2="84.72%" y2="139.29%" gradientUnits="userSpaceOnUse" id="SvgjsLinearGradient1084"><stop stop-color="#0e2a47" offset="0"></stop><stop stop-color="#00459e" offset="1"></stop></linearGradient><style>
            @keyframes float1 {
                0%{transform: translate(0, 0)}
                50%{transform: translate(-10px, 0)}
                100%{transform: translate(0, 0)}
            }

            .triangle-float1 {
                animation: float1 5s infinite;
            }

            @keyframes float2 {
                0%{transform: translate(0, 0)}
                50%{transform: translate(-5px, -5px)}
                100%{transform: translate(0, 0)}
            }

            .triangle-float2 {
                animation: float2 4s infinite;
            }

            @keyframes float3 {
                0%{transform: translate(0, 0)}
                50%{transform: translate(0, -10px)}
                100%{transform: translate(0, 0)}
            }

            .triangle-float3 {
                animation: float3 6s infinite;
            }
        </style></defs></svg>