<svg xmlns="http://www.w3.org/2000/svg" version="1.1" xmlns:xlink="http://www.w3.org/1999/xlink" xmlns:svgjs="http://svgjs.com/svgjs" width="1440" height="560" preserveAspectRatio="none" viewBox="0 0 1440 560"><g mask="url(&quot;#SvgjsMask1073&quot;)" fill="none"><rect width="1440" height="560" x="0" y="0" fill="url(#SvgjsLinearGradient1074)"></rect><path d="M1026.421630914975 158.72311334903023L903.3099473943944 210.9809225846837 955.5677566300479 334.09260610526417 1078.6794401506284 281.8347968696107z" fill="rgba(28, 83, 142, 0.4)" class="triangle-float1"></path><path d="M831.83 265.68 a95.53 95.53 0 1 0 191.06 0 a95.53 95.53 0 1 0 -191.06 0z" fill="rgba(28, 83, 142, 0.4)" class="triangle-float2"></path><path d="M1391.20948257827 36.65210919274931L1299.548088805785-99.52125188393342 1234.4039423204126 28.331334380425034z" fill="rgba(28, 83, 142, 0.4)" class="triangle-float2"></path><path d="M271.877,618.184C299.742,617.583,321.862,597.937,336.193,574.033C351.039,549.27,360.99,518.788,346.41,493.868C331.931,469.121,300.549,464.257,271.877,464.107C242.853,463.955,211.175,468.352,195.981,493.081C180.253,518.679,186.981,551.23,202.564,576.917C217.512,601.557,243.064,618.806,271.877,618.184" fill="rgba(28, 83, 142, 0.4)" class="triangle-float2"></path><path d="M1405.503,120.167C1435.164,121.421,1463.629,107.842,1479.796,82.942C1497.573,55.563,1506.09,19.642,1488.717,-7.995C1472.069,-34.48,1436.784,-34.874,1405.503,-35.249C1373.231,-35.636,1334.762,-38.06,1318.757,-10.034C1302.811,17.889,1323.522,50.327,1341.351,77.087C1356.658,100.063,1377.92,119.001,1405.503,120.167" fill="rgba(28, 83, 142, 0.4)" class="triangle-float3"></path><path d="M490.888,589.933C514.628,590.18,533.098,570.625,543.434,549.252C552.464,530.58,549.445,509.046,538.538,491.404C528.235,474.739,510.465,465.043,490.888,464.257C469.677,463.406,447.093,469.122,436.118,487.293C424.847,505.955,429.94,528.943,440.204,548.177C451.249,568.875,467.428,589.689,490.888,589.933" fill="rgba(28, 83, 142, 0.4)" class="triangle-float2"></path><path d="M412.982,293.172C456.252,294.428,500.49,278.885,522.679,241.716C545.353,203.735,542.458,154.565,517.55,118.01C495.216,85.234,452.638,80.018,412.982,80.726C374.951,81.405,335.197,89.598,314.687,121.631C292.721,155.938,293.532,200.308,313.785,235.653C334.152,271.197,372.033,291.984,412.982,293.172" fill="rgba(28, 83, 142, 0.4)" class="triangle-float1"></path><path d="M557.0697141934045 337.7899504883009L407.7273455324605 280.4627862523643 350.4001812965239 429.80515491330834 499.7425499574679 487.1323191492449z" fill="rgba(28, 83, 142, 0.4)" class="triangle-float3"></path><path d="M211.949,476.171C227.516,476.716,242.382,467.715,249.366,453.791C255.78,441.004,249.929,426.776,243.003,414.259C235.76,401.168,226.897,386.779,211.949,386.166C196.289,385.524,183.25,397.546,176.145,411.516C169.683,424.22,171.905,438.852,178.81,451.321C185.979,464.267,197.16,475.653,211.949,476.171" fill="rgba(28, 83, 142, 0.4)" class="triangle-float3"></path></g><defs><mask id="SvgjsMask1073"><rect width="1440" height="560" fill="#ffffff"></rect></mask><linearGradient x1="15.28%" y1="-39.29%" x2="84.72%" y2="139.29%" gradientUnits="userSpaceOnUse" id="SvgjsLinearGradient1074"><stop stop-color="#0e2a47" offset="0"></stop><stop stop-color="#00459e" offset="1"></stop></linearGradient><style>
            @keyframes float1 {
                0%{transform: translate(0, 0)}
                50%{transform: translate(-10px, 0)}
                100%{transform: translate(0, 0)}
            }

            .triangle-float1 {
                animation: float1 5s infinite;
            }

            @keyframes float2 {
                0%{transform: translate(0, 0)}
                50%{transform: translate(-5px, -5px)}
                100%{transform: translate(0, 0)}
            }

            .triangle-float2 {
                animation: float2 4s infinite;
            }

            @keyframes float3 {
                0%{transform: translate(0, 0)}
                50%{transform: translate(0, -10px)}
                100%{transform: translate(0, 0)}
            }

            .triangle-float3 {
                animation: float3 6s infinite;
            }
        </style></defs></svg>