<svg xmlns="http://www.w3.org/2000/svg" version="1.1" xmlns:xlink="http://www.w3.org/1999/xlink" xmlns:svgjs="http://svgjs.com/svgjs" width="1440" height="560" preserveAspectRatio="none" viewBox="0 0 1440 560"><g mask="url(&quot;#SvgjsMask1027&quot;)" fill="none"><rect width="1440" height="560" x="0" y="0" fill="url(#SvgjsLinearGradient1028)"></rect><path d="M1263.973,726.964C1320.474,725.124,1354.888,671.524,1382.606,622.255C1409.578,574.312,1434.771,518.656,1408.29,470.44C1381.125,420.979,1320.352,403.849,1263.973,406.249C1211.977,408.463,1166.004,437.108,1139.478,481.884C1112.384,527.619,1107.084,583.048,1131.159,630.442C1157.724,682.738,1205.347,728.873,1263.973,726.964" fill="rgba(28, 83, 142, 0.4)" class="triangle-float1"></path><path d="M1194.0765185484554 439.6952365608354L1250.446390924894 409.72284375672905 1177.3028655305152 340.1542315941242z" fill="rgba(28, 83, 142, 0.4)" class="triangle-float3"></path><path d="M960.1861849056796 282.97923389127226L927.0505522412027 180.998242745925 790.6468818554204 281.6921873153141z" fill="rgba(28, 83, 142, 0.4)" class="triangle-float2"></path><path d="M684.8223309354019 302.60927294641806L683.8260377024513 245.53167185770147 598.7077826858517 275.5649122514854z" fill="rgba(28, 83, 142, 0.4)" class="triangle-float1"></path><path d="M112.8665135900348 535.9813920155576L246.52647598360943 574.307769492611 284.8528534606628 440.6478070990363 151.19289106708814 402.321429621983z" fill="rgba(28, 83, 142, 0.4)" class="triangle-float3"></path><path d="M208.317,317.639C249.385,317.187,278.021,281.638,298.047,245.781C317.442,211.055,327.812,170.811,310.254,135.121C290.596,95.163,252.823,61.87,208.317,63.388C165.57,64.846,137.046,103.514,117.75,141.686C100.642,175.529,97.744,214.077,115.099,247.794C134.144,284.795,166.705,318.097,208.317,317.639" fill="rgba(28, 83, 142, 0.4)" class="triangle-float2"></path></g><defs><mask id="SvgjsMask1027"><rect width="1440" height="560" fill="#ffffff"></rect></mask><linearGradient x1="15.28%" y1="-39.29%" x2="84.72%" y2="139.29%" gradientUnits="userSpaceOnUse" id="SvgjsLinearGradient1028"><stop stop-color="#0e2a47" offset="0"></stop><stop stop-color="#00459e" offset="1"></stop></linearGradient><style>
            @keyframes float1 {
                0%{transform: translate(0, 0)}
                50%{transform: translate(-10px, 0)}
                100%{transform: translate(0, 0)}
            }

            .triangle-float1 {
                animation: float1 5s infinite;
            }

            @keyframes float2 {
                0%{transform: translate(0, 0)}
                50%{transform: translate(-5px, -5px)}
                100%{transform: translate(0, 0)}
            }

            .triangle-float2 {
                animation: float2 4s infinite;
            }

            @keyframes float3 {
                0%{transform: translate(0, 0)}
                50%{transform: translate(0, -10px)}
                100%{transform: translate(0, 0)}
            }

            .triangle-float3 {
                animation: float3 6s infinite;
            }
        </style></defs></svg>