<svg xmlns="http://www.w3.org/2000/svg" version="1.1" xmlns:xlink="http://www.w3.org/1999/xlink" xmlns:svgjs="http://svgjs.com/svgjs" width="1440" height="560" preserveAspectRatio="none" viewBox="0 0 1440 560"><g mask="url(&quot;#SvgjsMask1017&quot;)" fill="none"><rect width="1440" height="560" x="0" y="0" fill="url(#SvgjsLinearGradient1018)"></rect><path d="M1342.4040502936905 2.3578749179946925L1355.1826869087463 187.63822768300417 1491.3399503642959 99.21666692597637z" fill="rgba(28, 83, 142, 0.4)" class="triangle-float2"></path><path d="M260.8 319.16 a172.3 172.3 0 1 0 344.6 0 a172.3 172.3 0 1 0 -344.6 0z" fill="rgba(28, 83, 142, 0.4)" class="triangle-float1"></path><path d="M1352.797,561.423C1394.408,560.465,1429.888,532.193,1448.47,494.949C1465.217,461.383,1457.24,422.723,1438.094,390.465C1419.416,358.994,1389.361,335.29,1352.797,333.748C1313.458,332.089,1274.926,349.316,1254.058,382.705C1231.917,418.131,1228.978,462.969,1249.18,499.535C1270.032,537.277,1309.689,562.415,1352.797,561.423" fill="rgba(28, 83, 142, 0.4)" class="triangle-float2"></path><path d="M1240.11 49.73 a104.61 104.61 0 1 0 209.22 0 a104.61 104.61 0 1 0 -209.22 0z" fill="rgba(28, 83, 142, 0.4)" class="triangle-float2"></path><path d="M982.0945158830233 60.070137930782444L1030.2201246048573 217.48191123473686 1139.5062891869777 11.944529208948381z" fill="rgba(28, 83, 142, 0.4)" class="triangle-float1"></path><path d="M46.79344264264622 137.83665231921117L31.834887666614303 244.2723014862883 198.967638905246 213.4923093667976z" fill="rgba(28, 83, 142, 0.4)" class="triangle-float1"></path><path d="M598.3057843167015 348.843861077409L569.3394035506625 296.58712687809896 505.437492634717 366.16506512681246z" fill="rgba(28, 83, 142, 0.4)" class="triangle-float2"></path><path d="M28.7 147.38 a103.04 103.04 0 1 0 206.08 0 a103.04 103.04 0 1 0 -206.08 0z" fill="rgba(28, 83, 142, 0.4)" class="triangle-float3"></path><path d="M873.116,455.737C906.58,457.782,941.852,449.969,960.803,422.313C982.192,391.098,986.736,349.775,968.406,316.671C949.559,282.634,912.003,262.712,873.116,263.951C836.18,265.128,803.698,289.068,787.791,322.424C773.744,351.879,784.626,385.135,802.218,412.62C818.199,437.59,843.525,453.928,873.116,455.737" fill="rgba(28, 83, 142, 0.4)" class="triangle-float3"></path></g><defs><mask id="SvgjsMask1017"><rect width="1440" height="560" fill="#ffffff"></rect></mask><linearGradient x1="15.28%" y1="-39.29%" x2="84.72%" y2="139.29%" gradientUnits="userSpaceOnUse" id="SvgjsLinearGradient1018"><stop stop-color="#0e2a47" offset="0"></stop><stop stop-color="#00459e" offset="1"></stop></linearGradient><style>
            @keyframes float1 {
                0%{transform: translate(0, 0)}
                50%{transform: translate(-10px, 0)}
                100%{transform: translate(0, 0)}
            }

            .triangle-float1 {
                animation: float1 5s infinite;
            }

            @keyframes float2 {
                0%{transform: translate(0, 0)}
                50%{transform: translate(-5px, -5px)}
                100%{transform: translate(0, 0)}
            }

            .triangle-float2 {
                animation: float2 4s infinite;
            }

            @keyframes float3 {
                0%{transform: translate(0, 0)}
                50%{transform: translate(0, -10px)}
                100%{transform: translate(0, 0)}
            }

            .triangle-float3 {
                animation: float3 6s infinite;
            }
        </style></defs></svg>