<svg xmlns="http://www.w3.org/2000/svg" version="1.1" xmlns:xlink="http://www.w3.org/1999/xlink" xmlns:svgjs="http://svgjs.com/svgjs" width="1440" height="560" preserveAspectRatio="none" viewBox="0 0 1440 560"><g mask="url(&quot;#SvgjsMask1053&quot;)" fill="none"><rect width="1440" height="560" x="0" y="0" fill="url(#SvgjsLinearGradient1054)"></rect><path d="M767.4432228404198 326.29631283173046L781.3243742247727 439.34921852505903 894.3772799181013 425.4680671407061 880.4961285337483 312.41516144737756z" fill="rgba(28, 83, 142, 0.4)" class="triangle-float3"></path><path d="M147.02 421.27 a185.75 185.75 0 1 0 371.5 0 a185.75 185.75 0 1 0 -371.5 0z" fill="rgba(28, 83, 142, 0.4)" class="triangle-float2"></path><path d="M369.70956969417364 475.04683605349203L419.9620743240802 320.3855298522054 265.30076812279367 270.13302522229884 215.04826349288706 424.79433142358545z" fill="rgba(28, 83, 142, 0.4)" class="triangle-float3"></path><path d="M628.58,651.407C690.873,655.97,757.547,629.964,785.354,574.035C811.282,521.885,775.263,466.081,745.657,415.927C716.794,367.031,685.289,311.274,628.58,308.451C568.51,305.461,516.111,349.28,489.412,403.173C465.382,451.679,480.634,506.437,507.106,553.655C534.347,602.245,573.024,647.338,628.58,651.407" fill="rgba(28, 83, 142, 0.4)" class="triangle-float2"></path><path d="M1337.411,357.828C1377.379,359.234,1409.177,328.487,1429.337,293.947C1449.697,259.064,1461.165,216.056,1440.366,181.433C1420.012,147.55,1376.938,140.778,1337.411,140.921C1298.21,141.062,1254.727,147.878,1235.735,182.171C1217.109,215.805,1236.78,254.578,1256.04,287.853C1275.248,321.037,1299.093,356.481,1337.411,357.828" fill="rgba(28, 83, 142, 0.4)" class="triangle-float3"></path><path d="M239.29728664514067 529.5775152767959L355.131799228719 480.40868183715236 305.96296578907544 364.57416925357404 190.1284532054971 413.7430026932176z" fill="rgba(28, 83, 142, 0.4)" class="triangle-float1"></path><path d="M298.66 396.99 a149.15 149.15 0 1 0 298.3 0 a149.15 149.15 0 1 0 -298.3 0z" fill="rgba(28, 83, 142, 0.4)" class="triangle-float1"></path><path d="M562.3689332723609 203.6258127641062L484.2404101992522 144.63492510359544 472.33023697084195 229.38021108137644z" fill="rgba(28, 83, 142, 0.4)" class="triangle-float1"></path><path d="M985.08 486.23 a165.13 165.13 0 1 0 330.26 0 a165.13 165.13 0 1 0 -330.26 0z" fill="rgba(28, 83, 142, 0.4)" class="triangle-float3"></path></g><defs><mask id="SvgjsMask1053"><rect width="1440" height="560" fill="#ffffff"></rect></mask><linearGradient x1="15.28%" y1="-39.29%" x2="84.72%" y2="139.29%" gradientUnits="userSpaceOnUse" id="SvgjsLinearGradient1054"><stop stop-color="#0e2a47" offset="0"></stop><stop stop-color="#00459e" offset="1"></stop></linearGradient><style>
            @keyframes float1 {
                0%{transform: translate(0, 0)}
                50%{transform: translate(-10px, 0)}
                100%{transform: translate(0, 0)}
            }

            .triangle-float1 {
                animation: float1 5s infinite;
            }

            @keyframes float2 {
                0%{transform: translate(0, 0)}
                50%{transform: translate(-5px, -5px)}
                100%{transform: translate(0, 0)}
            }

            .triangle-float2 {
                animation: float2 4s infinite;
            }

            @keyframes float3 {
                0%{transform: translate(0, 0)}
                50%{transform: translate(0, -10px)}
                100%{transform: translate(0, 0)}
            }

            .triangle-float3 {
                animation: float3 6s infinite;
            }
        </style></defs></svg>