<svg xmlns="http://www.w3.org/2000/svg" version="1.1" xmlns:xlink="http://www.w3.org/1999/xlink" xmlns:svgjs="http://svgjs.com/svgjs" width="1440" height="560" preserveAspectRatio="none" viewBox="0 0 1440 560"><g mask="url(&quot;#SvgjsMask1023&quot;)" fill="none"><rect width="1440" height="560" x="0" y="0" fill="url(#SvgjsLinearGradient1024)"></rect><path d="M-5.907541524373315 162.17158217470134L-62.74994859130215 253.13844891771458 28.21691815171109 309.9808559846434 85.05932521863993 219.01398924163018z" fill="rgba(28, 83, 142, 0.4)" class="triangle-float2"></path><path d="M512.9123791313209 265.24194877771885L441.67713478601894 220.72922781056747 410.5256755079428 349.8384548120961z" fill="rgba(28, 83, 142, 0.4)" class="triangle-float2"></path><path d="M1327.329,417.477C1343.505,418.136,1359.999,411.094,1367.669,396.838C1375.034,383.15,1370.373,366.595,1361.615,353.753C1353.994,342.577,1340.845,337.148,1327.329,337.686C1314.765,338.186,1304.123,345.639,1297.462,356.304C1290.305,367.764,1286.376,381.628,1292.304,393.769C1298.933,407.347,1312.232,416.862,1327.329,417.477" fill="rgba(28, 83, 142, 0.4)" class="triangle-float1"></path><path d="M74.449,389.246C122.266,386.577,156.197,346.419,177.517,303.535C196.281,265.791,196.914,221.994,175.708,185.566C154.636,149.368,116.329,127.159,74.449,126.481C31.324,125.783,-8.913,146.183,-32.654,182.192C-59.259,222.545,-72.89,273.343,-50.683,316.274C-26.906,362.24,22.777,392.131,74.449,389.246" fill="rgba(28, 83, 142, 0.4)" class="triangle-float1"></path><path d="M1026.177,253.301C1080.892,253.757,1115.377,199.978,1140.47,151.354C1163.009,107.68,1173.061,57.293,1149.624,14.094C1125.155,-31.007,1077.487,-59.696,1026.177,-59.31C975.495,-58.928,929.708,-28.818,905.909,15.93C883.452,58.155,893.523,106.813,915.138,149.475C939.685,197.922,971.868,252.848,1026.177,253.301" fill="rgba(28, 83, 142, 0.4)" class="triangle-float3"></path><path d="M539.2089922736595 371.9171902306292L462.82678280321954 329.57784015120296 437.5088624193001 465.32082939657613z" fill="rgba(28, 83, 142, 0.4)" class="triangle-float1"></path></g><defs><mask id="SvgjsMask1023"><rect width="1440" height="560" fill="#ffffff"></rect></mask><linearGradient x1="15.28%" y1="-39.29%" x2="84.72%" y2="139.29%" gradientUnits="userSpaceOnUse" id="SvgjsLinearGradient1024"><stop stop-color="#0e2a47" offset="0"></stop><stop stop-color="#00459e" offset="1"></stop></linearGradient><style>
            @keyframes float1 {
                0%{transform: translate(0, 0)}
                50%{transform: translate(-10px, 0)}
                100%{transform: translate(0, 0)}
            }

            .triangle-float1 {
                animation: float1 5s infinite;
            }

            @keyframes float2 {
                0%{transform: translate(0, 0)}
                50%{transform: translate(-5px, -5px)}
                100%{transform: translate(0, 0)}
            }

            .triangle-float2 {
                animation: float2 4s infinite;
            }

            @keyframes float3 {
                0%{transform: translate(0, 0)}
                50%{transform: translate(0, -10px)}
                100%{transform: translate(0, 0)}
            }

            .triangle-float3 {
                animation: float3 6s infinite;
            }
        </style></defs></svg>