<svg xmlns="http://www.w3.org/2000/svg" version="1.1" xmlns:xlink="http://www.w3.org/1999/xlink" xmlns:svgjs="http://svgjs.com/svgjs" width="1440" height="560" preserveAspectRatio="none" viewBox="0 0 1440 560"><g mask="url(&quot;#SvgjsMask1009&quot;)" fill="none"><rect width="1440" height="560" x="0" y="0" fill="url(#SvgjsLinearGradient1010)"></rect><path d="M531.0922686594688 138.63356590344262L589.706840727666 201.48999894086404 652.5632737650874 142.87542687266688 593.9487016968902 80.01899383524544z" fill="rgba(28, 83, 142, 0.4)" class="triangle-float2"></path><path d="M938.6660629436126 119.73244024183491L872.2628733888356 250.05603766109016 1002.5864708080908 316.4592272158672 1068.9896603628679 186.13562979661194z" fill="rgba(28, 83, 142, 0.4)" class="triangle-float2"></path><path d="M871.917,240.01C901.948,239.831,931.259,228.303,947.373,202.96C964.721,175.677,967.803,141.33,952.911,112.633C936.793,81.573,906.885,56.225,871.917,57.555C838.537,58.825,816.496,88.855,800.934,118.413C786.675,145.497,779.45,177.437,794.881,203.871C810.207,230.125,841.518,240.192,871.917,240.01" fill="rgba(28, 83, 142, 0.4)" class="triangle-float2"></path><path d="M1265.6968709655275 587.8349689264005L1352.6073052237775 506.78967783780695 1271.5620141351837 419.87924357955706 1184.651579876934 500.9245346681506z" fill="rgba(28, 83, 142, 0.4)" class="triangle-float1"></path><path d="M413.2345244281312 281.10770300394955L326.2365184654296 208.10770828748787 253.2365237489679 295.1057142501894 340.2345297116695 368.10570896665115z" fill="rgba(28, 83, 142, 0.4)" class="triangle-float2"></path><path d="M14.163946079068754 203.48402679996693L-18.659588613012378 284.7251259989906 62.58151058601135 317.54866069107175 95.40504527809247 236.30756149204805z" fill="rgba(28, 83, 142, 0.4)" class="triangle-float3"></path></g><defs><mask id="SvgjsMask1009"><rect width="1440" height="560" fill="#ffffff"></rect></mask><linearGradient x1="15.28%" y1="-39.29%" x2="84.72%" y2="139.29%" gradientUnits="userSpaceOnUse" id="SvgjsLinearGradient1010"><stop stop-color="#0e2a47" offset="0"></stop><stop stop-color="#00459e" offset="1"></stop></linearGradient><style>
            @keyframes float1 {
                0%{transform: translate(0, 0)}
                50%{transform: translate(-10px, 0)}
                100%{transform: translate(0, 0)}
            }

            .triangle-float1 {
                animation: float1 5s infinite;
            }

            @keyframes float2 {
                0%{transform: translate(0, 0)}
                50%{transform: translate(-5px, -5px)}
                100%{transform: translate(0, 0)}
            }

            .triangle-float2 {
                animation: float2 4s infinite;
            }

            @keyframes float3 {
                0%{transform: translate(0, 0)}
                50%{transform: translate(0, -10px)}
                100%{transform: translate(0, 0)}
            }

            .triangle-float3 {
                animation: float3 6s infinite;
            }
        </style></defs></svg>