<svg xmlns="http://www.w3.org/2000/svg" version="1.1" xmlns:xlink="http://www.w3.org/1999/xlink" xmlns:svgjs="http://svgjs.com/svgjs" width="1440" height="560" preserveAspectRatio="none" viewBox="0 0 1440 560"><g mask="url(&quot;#SvgjsMask1013&quot;)" fill="none"><rect width="1440" height="560" x="0" y="0" fill="url(#SvgjsLinearGradient1014)"></rect><path d="M425.997150483658 218.47752300347565L406.0457596637579 312.3414369807496 499.9096736410319 332.29282780064966 519.861064460932 238.42891382337572z" fill="rgba(28, 83, 142, 0.4)" class="triangle-float2"></path><path d="M1252.0694074825888 158.90912781181268L1151.1275676036655 38.61132749303647 1030.8297672848894 139.55316737195972 1131.7716071638126 259.85096769073596z" fill="rgba(28, 83, 142, 0.4)" class="triangle-float2"></path><path d="M616.328,253.681C664.472,256.087,712.647,235.976,737.736,194.816C763.792,152.07,762.553,98.104,737.621,54.693C712.59,11.11,666.577,-15.547,616.328,-16.576C564.164,-17.645,509.807,3.057,486.111,49.541C463.877,93.158,487.933,142.374,514.261,183.649C538.043,220.933,572.16,251.474,616.328,253.681" fill="rgba(28, 83, 142, 0.4)" class="triangle-float3"></path><path d="M508.753,671.415C560.825,673.397,608.351,641.065,633.13,595.223C656.776,551.479,653.223,497.245,625.046,456.273C600.021,419.885,552.915,414.46,508.753,414.371C464.374,414.282,415.407,418.32,391.65,455.805C366.637,495.272,377.461,545.279,399.762,586.34C423.338,629.748,459.392,669.536,508.753,671.415" fill="rgba(28, 83, 142, 0.4)" class="triangle-float2"></path><path d="M327.9567583784667 164.416008468377L342.0055701116707 253.11671482827796 468.03222378492023 187.6931440485215z" fill="rgba(28, 83, 142, 0.4)" class="triangle-float1"></path><path d="M1109.415,622.863C1149.264,619.301,1181.671,595.028,1202.797,561.053C1225.477,524.579,1240.265,481.045,1221.674,442.327C1200.731,398.712,1157.797,366.942,1109.415,366.578C1060.485,366.21,1019.231,398.576,994.193,440.616C968.466,483.813,954.959,538.306,981.827,580.803C1007.475,621.371,1061.61,627.136,1109.415,622.863" fill="rgba(28, 83, 142, 0.4)" class="triangle-float3"></path></g><defs><mask id="SvgjsMask1013"><rect width="1440" height="560" fill="#ffffff"></rect></mask><linearGradient x1="15.28%" y1="-39.29%" x2="84.72%" y2="139.29%" gradientUnits="userSpaceOnUse" id="SvgjsLinearGradient1014"><stop stop-color="#0e2a47" offset="0"></stop><stop stop-color="#00459e" offset="1"></stop></linearGradient><style>
            @keyframes float1 {
                0%{transform: translate(0, 0)}
                50%{transform: translate(-10px, 0)}
                100%{transform: translate(0, 0)}
            }

            .triangle-float1 {
                animation: float1 5s infinite;
            }

            @keyframes float2 {
                0%{transform: translate(0, 0)}
                50%{transform: translate(-5px, -5px)}
                100%{transform: translate(0, 0)}
            }

            .triangle-float2 {
                animation: float2 4s infinite;
            }

            @keyframes float3 {
                0%{transform: translate(0, 0)}
                50%{transform: translate(0, -10px)}
                100%{transform: translate(0, 0)}
            }

            .triangle-float3 {
                animation: float3 6s infinite;
            }
        </style></defs></svg>