<svg xmlns="http://www.w3.org/2000/svg" version="1.1" xmlns:xlink="http://www.w3.org/1999/xlink" xmlns:svgjs="http://svgjs.com/svgjs" width="1440" height="560" preserveAspectRatio="none" viewBox="0 0 1440 560"><g mask="url(&quot;#SvgjsMask1085&quot;)" fill="none"><rect width="1440" height="560" x="0" y="0" fill="url(#SvgjsLinearGradient1086)"></rect><path d="M344.378,432.781C400.951,437.506,464.416,427.363,493.834,378.81C523.98,329.055,505.627,266.57,475.084,217.058C446.288,170.378,399.222,137.117,344.378,136.533C288.543,135.939,233.995,164.412,208.762,214.223C185.389,260.362,205.425,313.053,232.695,357.001C258.118,397.973,296.326,428.768,344.378,432.781" fill="rgba(28, 83, 142, 0.4)" class="triangle-float2"></path><path d="M679.09 270.4 a161.87 161.87 0 1 0 323.74 0 a161.87 161.87 0 1 0 -323.74 0z" fill="rgba(28, 83, 142, 0.4)" class="triangle-float2"></path><path d="M1201.201,126.439C1226.041,126.416,1249.766,114.157,1261.863,92.462C1273.676,71.276,1269.224,46.153,1257.941,24.68C1245.626,1.245,1227.656,-21.973,1201.201,-22.981C1173.443,-24.038,1149.389,-4.526,1136.445,20.052C1124.354,43.01,1126.854,70.41,1140.345,92.574C1153.282,113.828,1176.319,126.462,1201.201,126.439" fill="rgba(28, 83, 142, 0.4)" class="triangle-float1"></path><path d="M588.3533095601609 125.57383498894363L698.8050908047734 184.30208882051443 757.5333446363442 73.85030757590201 647.0815633917317 15.122053744331197z" fill="rgba(28, 83, 142, 0.4)" class="triangle-float1"></path><path d="M298.0812437812732 532.4799503070914L301.6712863113398 432.40903661052414 223.6779285445951 472.14863728420454z" fill="rgba(28, 83, 142, 0.4)" class="triangle-float2"></path><path d="M428.15 310.95 a150.32 150.32 0 1 0 300.64 0 a150.32 150.32 0 1 0 -300.64 0z" fill="rgba(28, 83, 142, 0.4)" class="triangle-float1"></path><path d="M1025.654784607387 435.148369415719L1117.7811692426694 537.4650851376315 1127.9715003292995 343.0219847804366z" fill="rgba(28, 83, 142, 0.4)" class="triangle-float3"></path><path d="M655.158667723973 235.3202012798015L811.728044674307 218.86409664941326 795.2719400439187 62.294719699079394 638.7025630935848 78.75082432946763z" fill="rgba(28, 83, 142, 0.4)" class="triangle-float2"></path><path d="M692.9271974803205 334.6685972013216L760.3781964585498 257.2242854085573 672.564194484642 238.55884308249895z" fill="rgba(28, 83, 142, 0.4)" class="triangle-float2"></path></g><defs><mask id="SvgjsMask1085"><rect width="1440" height="560" fill="#ffffff"></rect></mask><linearGradient x1="15.28%" y1="-39.29%" x2="84.72%" y2="139.29%" gradientUnits="userSpaceOnUse" id="SvgjsLinearGradient1086"><stop stop-color="#0e2a47" offset="0"></stop><stop stop-color="#00459e" offset="1"></stop></linearGradient><style>
            @keyframes float1 {
                0%{transform: translate(0, 0)}
                50%{transform: translate(-10px, 0)}
                100%{transform: translate(0, 0)}
            }

            .triangle-float1 {
                animation: float1 5s infinite;
            }

            @keyframes float2 {
                0%{transform: translate(0, 0)}
                50%{transform: translate(-5px, -5px)}
                100%{transform: translate(0, 0)}
            }

            .triangle-float2 {
                animation: float2 4s infinite;
            }

            @keyframes float3 {
                0%{transform: translate(0, 0)}
                50%{transform: translate(0, -10px)}
                100%{transform: translate(0, 0)}
            }

            .triangle-float3 {
                animation: float3 6s infinite;
            }
        </style></defs></svg>