<svg xmlns="http://www.w3.org/2000/svg" version="1.1" xmlns:xlink="http://www.w3.org/1999/xlink" xmlns:svgjs="http://svgjs.com/svgjs" width="1440" height="560" preserveAspectRatio="none" viewBox="0 0 1440 560"><g mask="url(&quot;#SvgjsMask1003&quot;)" fill="none"><rect width="1440" height="560" x="0" y="0" fill="url(#SvgjsLinearGradient1004)"></rect><path d="M61.890295328427534 12.144049448175018L0.08582823971458708 91.25015993052571 149.6472275075971 144.4038053224198z" fill="rgba(28, 83, 142, 0.4)" class="triangle-float2"></path><path d="M674.315,583.322C713.23,585.874,751.034,567.568,772.06,534.722C794.855,499.113,802.26,453.24,780.967,416.713C759.799,380.401,716.255,364.269,674.315,367.05C636.828,369.535,606.389,395.773,589.635,429.399C574.648,459.478,580.307,493.768,596.506,523.212C613.438,553.99,639.262,581.024,674.315,583.322" fill="rgba(28, 83, 142, 0.4)" class="triangle-float1"></path><path d="M1345.875,721.924C1396.108,722.139,1445.291,701.04,1471.072,657.927C1497.502,613.729,1498.501,556.902,1470.34,513.786C1444.311,473.933,1393.472,466.787,1345.875,466.242C1296.942,465.682,1242.965,469.796,1216.379,510.88C1188.019,554.705,1195.222,612.369,1222.523,656.862C1248.581,699.329,1296.051,721.711,1345.875,721.924" fill="rgba(28, 83, 142, 0.4)" class="triangle-float1"></path><path d="M90.64539422101615 179.64394448069396L175.9401042951472 151.93001319313348 148.22617300758668 66.63530311900244 62.93146293345566 94.34923440656293z" fill="rgba(28, 83, 142, 0.4)" class="triangle-float1"></path><path d="M1124.9818538248878 159.89781487337703L1057.9129399472808 117.98850612541428 1028.5834337641402 239.54653131580608z" fill="rgba(28, 83, 142, 0.4)" class="triangle-float2"></path><path d="M1210.819,503.862C1249.72,504.28,1279.303,473.455,1298.911,439.855C1318.72,405.912,1332.433,364.146,1311.918,330.626C1291.983,298.054,1249.003,296.491,1210.819,295.921C1171.145,295.329,1124.699,293.463,1104.351,327.526C1083.728,362.049,1105.163,403.569,1125.948,437.995C1145.786,470.852,1172.44,503.449,1210.819,503.862" fill="rgba(28, 83, 142, 0.4)" class="triangle-float3"></path></g><defs><mask id="SvgjsMask1003"><rect width="1440" height="560" fill="#ffffff"></rect></mask><linearGradient x1="15.28%" y1="-39.29%" x2="84.72%" y2="139.29%" gradientUnits="userSpaceOnUse" id="SvgjsLinearGradient1004"><stop stop-color="#0e2a47" offset="0"></stop><stop stop-color="#00459e" offset="1"></stop></linearGradient><style>
            @keyframes float1 {
                0%{transform: translate(0, 0)}
                50%{transform: translate(-10px, 0)}
                100%{transform: translate(0, 0)}
            }

            .triangle-float1 {
                animation: float1 5s infinite;
            }

            @keyframes float2 {
                0%{transform: translate(0, 0)}
                50%{transform: translate(-5px, -5px)}
                100%{transform: translate(0, 0)}
            }

            .triangle-float2 {
                animation: float2 4s infinite;
            }

            @keyframes float3 {
                0%{transform: translate(0, 0)}
                50%{transform: translate(0, -10px)}
                100%{transform: translate(0, 0)}
            }

            .triangle-float3 {
                animation: float3 6s infinite;
            }
        </style></defs></svg>