<svg xmlns="http://www.w3.org/2000/svg" version="1.1" xmlns:xlink="http://www.w3.org/1999/xlink" xmlns:svgjs="http://svgjs.com/svgjs" width="1440" height="560" preserveAspectRatio="none" viewBox="0 0 1440 560"><g mask="url(&quot;#SvgjsMask1025&quot;)" fill="none"><rect width="1440" height="560" x="0" y="0" fill="url(#SvgjsLinearGradient1026)"></rect><path d="M94.51947791045072 414.5050047036232L-34.3799226480981 518.8856811643436 198.90015437117117 543.404405262172z" fill="rgba(28, 83, 142, 0.4)" class="triangle-float3"></path><path d="M352.9 444.83 a153.67 153.67 0 1 0 307.34 0 a153.67 153.67 0 1 0 -307.34 0z" fill="rgba(28, 83, 142, 0.4)" class="triangle-float3"></path><path d="M1189.036,319.103C1222.511,317.736,1243.967,287.37,1260.251,258.09C1275.928,229.902,1287.454,197.352,1272.698,168.671C1256.851,137.87,1223.667,118.938,1189.036,119.672C1155.547,120.382,1127.824,142.955,1111.299,172.092C1095.021,200.793,1091.557,235.179,1106.981,264.348C1123.456,295.503,1153.822,320.541,1189.036,319.103" fill="rgba(28, 83, 142, 0.4)" class="triangle-float3"></path><path d="M283.6 384.96 a127.49 127.49 0 1 0 254.98 0 a127.49 127.49 0 1 0 -254.98 0z" fill="rgba(28, 83, 142, 0.4)" class="triangle-float3"></path><path d="M1038.54,557.338C1053.991,557.257,1066.287,545.893,1073.912,532.454C1081.421,519.22,1084.427,503.11,1076.769,489.961C1069.153,476.884,1053.643,470.767,1038.54,471.718C1024.948,472.574,1014.748,482.57,1007.832,494.303C1000.777,506.272,996.434,520.338,1002.519,532.829C1009.336,546.823,1022.974,557.42,1038.54,557.338" fill="rgba(28, 83, 142, 0.4)" class="triangle-float2"></path><path d="M187.5290803809849 403.33776079421676L271.77010351202745 358.54601426262866 226.97835698043934 274.3049911315861 142.7373338493968 319.0967376631742z" fill="rgba(28, 83, 142, 0.4)" class="triangle-float1"></path><path d="M542.2876054846163 240.42586302303795L533.222850031685 136.815234084293 429.61222109294005 145.87998953722428 438.6769765458713 249.49061847596923z" fill="rgba(28, 83, 142, 0.4)" class="triangle-float2"></path><path d="M1278.758,307.55C1301.565,306.307,1323.333,295.706,1334.12,275.573C1344.391,256.403,1339.965,233.365,1328.361,214.971C1317.582,197.884,1298.959,188.07,1278.758,187.816C1258.07,187.556,1238.913,196.816,1226.951,213.698C1212.454,234.157,1199.735,260.285,1211.853,282.237C1224.204,304.611,1253.239,308.941,1278.758,307.55" fill="rgba(28, 83, 142, 0.4)" class="triangle-float3"></path><path d="M604.5237021046695 298.1833166843683L689.5846521866423 319.39139348825006 678.8662923514786 181.19592996334993z" fill="rgba(28, 83, 142, 0.4)" class="triangle-float1"></path></g><defs><mask id="SvgjsMask1025"><rect width="1440" height="560" fill="#ffffff"></rect></mask><linearGradient x1="15.28%" y1="-39.29%" x2="84.72%" y2="139.29%" gradientUnits="userSpaceOnUse" id="SvgjsLinearGradient1026"><stop stop-color="#0e2a47" offset="0"></stop><stop stop-color="#00459e" offset="1"></stop></linearGradient><style>
            @keyframes float1 {
                0%{transform: translate(0, 0)}
                50%{transform: translate(-10px, 0)}
                100%{transform: translate(0, 0)}
            }

            .triangle-float1 {
                animation: float1 5s infinite;
            }

            @keyframes float2 {
                0%{transform: translate(0, 0)}
                50%{transform: translate(-5px, -5px)}
                100%{transform: translate(0, 0)}
            }

            .triangle-float2 {
                animation: float2 4s infinite;
            }

            @keyframes float3 {
                0%{transform: translate(0, 0)}
                50%{transform: translate(0, -10px)}
                100%{transform: translate(0, 0)}
            }

            .triangle-float3 {
                animation: float3 6s infinite;
            }
        </style></defs></svg>