<svg xmlns="http://www.w3.org/2000/svg" version="1.1" xmlns:xlink="http://www.w3.org/1999/xlink" xmlns:svgjs="http://svgjs.com/svgjs" width="1440" height="560" preserveAspectRatio="none" viewBox="0 0 1440 560"><g mask="url(&quot;#SvgjsMask1089&quot;)" fill="none"><rect width="1440" height="560" x="0" y="0" fill="url(#SvgjsLinearGradient1090)"></rect><path d="M69.11849369343587 366.56080716871014L12.175322405423444 457.6889303740154 177.33909285738747 497.5396257033814z" fill="rgba(28, 83, 142, 0.4)" class="triangle-float1"></path><path d="M1241.929,434.912C1293.697,435.995,1339.333,401.912,1363.607,356.176C1386.434,313.167,1381.845,261.33,1355.938,220.103C1331.661,181.47,1287.551,161.779,1241.929,162.543C1197.703,163.283,1157.092,185.878,1134.344,223.812C1110.904,262.9,1108.062,310.657,1128.758,351.265C1151.587,396.06,1191.663,433.861,1241.929,434.912" fill="rgba(28, 83, 142, 0.4)" class="triangle-float2"></path><path d="M1295.639,419.405C1358.356,423.316,1423.766,397.336,1453.593,342.027C1482.32,288.756,1461.726,224.635,1427.647,174.618C1398.099,131.251,1348.115,110.585,1295.639,110.204C1242.374,109.817,1187.471,126.88,1160.266,172.674C1132.568,219.298,1142.395,276.703,1168.481,324.248C1195.775,373.993,1239.008,415.874,1295.639,419.405" fill="rgba(28, 83, 142, 0.4)" class="triangle-float1"></path><path d="M1291.016330284264 476.27291543563837L1289.2551639403382 375.37576316673403 1188.3580116714338 377.13692951066 1190.1191780153597 478.03408177956436z" fill="rgba(28, 83, 142, 0.4)" class="triangle-float3"></path><path d="M288.6626916310343 158.1900316757621L371.14383112901834 44.66448249087608 175.1371424461483 75.70889217777808z" fill="rgba(28, 83, 142, 0.4)" class="triangle-float3"></path><path d="M910.5 543.67 a104.94 104.94 0 1 0 209.88 0 a104.94 104.94 0 1 0 -209.88 0z" fill="rgba(28, 83, 142, 0.4)" class="triangle-float3"></path><path d="M1313.106,510.164C1344.418,508.558,1362.822,477.994,1377.04,450.05C1389.596,425.373,1395.417,397.531,1383.009,372.779C1369.224,345.282,1343.826,324.064,1313.106,322.518C1279.745,320.839,1246.333,336.017,1229.857,365.074C1213.569,393.798,1220.276,428.604,1236.71,457.245C1253.234,486.043,1279.948,511.864,1313.106,510.164" fill="rgba(28, 83, 142, 0.4)" class="triangle-float3"></path><path d="M532.7518952833453 442.8678363077458L370.41194499118944 445.70149068053894 373.24559936398265 608.0414409726948 535.5855496561385 605.2077865999016z" fill="rgba(28, 83, 142, 0.4)" class="triangle-float2"></path><path d="M517.66 321.71 a116.69 116.69 0 1 0 233.38 0 a116.69 116.69 0 1 0 -233.38 0z" fill="rgba(28, 83, 142, 0.4)" class="triangle-float2"></path></g><defs><mask id="SvgjsMask1089"><rect width="1440" height="560" fill="#ffffff"></rect></mask><linearGradient x1="15.28%" y1="-39.29%" x2="84.72%" y2="139.29%" gradientUnits="userSpaceOnUse" id="SvgjsLinearGradient1090"><stop stop-color="#0e2a47" offset="0"></stop><stop stop-color="#00459e" offset="1"></stop></linearGradient><style>
            @keyframes float1 {
                0%{transform: translate(0, 0)}
                50%{transform: translate(-10px, 0)}
                100%{transform: translate(0, 0)}
            }

            .triangle-float1 {
                animation: float1 5s infinite;
            }

            @keyframes float2 {
                0%{transform: translate(0, 0)}
                50%{transform: translate(-5px, -5px)}
                100%{transform: translate(0, 0)}
            }

            .triangle-float2 {
                animation: float2 4s infinite;
            }

            @keyframes float3 {
                0%{transform: translate(0, 0)}
                50%{transform: translate(0, -10px)}
                100%{transform: translate(0, 0)}
            }

            .triangle-float3 {
                animation: float3 6s infinite;
            }
        </style></defs></svg>