<svg xmlns="http://www.w3.org/2000/svg" version="1.1" xmlns:xlink="http://www.w3.org/1999/xlink" xmlns:svgjs="http://svgjs.com/svgjs" width="1440" height="560" preserveAspectRatio="none" viewBox="0 0 1440 560"><g mask="url(&quot;#SvgjsMask1033&quot;)" fill="none"><rect width="1440" height="560" x="0" y="0" fill="url(#SvgjsLinearGradient1034)"></rect><path d="M352.7513080493049 112.68654124524785L260.04940881887933 82.56586830708451 261.2193490268471 236.67905362180448z" fill="rgba(28, 83, 142, 0.4)" class="triangle-float2"></path><path d="M270.85 326.04 a141.21 141.21 0 1 0 282.42 0 a141.21 141.21 0 1 0 -282.42 0z" fill="rgba(28, 83, 142, 0.4)" class="triangle-float3"></path><path d="M1144.82 55.43 a150.75 150.75 0 1 0 301.5 0 a150.75 150.75 0 1 0 -301.5 0z" fill="rgba(28, 83, 142, 0.4)" class="triangle-float1"></path><path d="M171.7525271299272 463.55230182409724L122.62775840100741 542.1683654521436 250.36859075797355 512.6770705530171z" fill="rgba(28, 83, 142, 0.4)" class="triangle-float2"></path><path d="M302.2874534972677 307.5952424239809L223.92637163035272 223.56327014621877 139.8943993525906 301.9243520131337 218.25548121950555 385.95632429089585z" fill="rgba(28, 83, 142, 0.4)" class="triangle-float3"></path><path d="M168.08575390702612-25.998694339611255L58.45317977707997-20.25309459237737 173.83135365426 83.6338797903349z" fill="rgba(28, 83, 142, 0.4)" class="triangle-float3"></path><path d="M316.94 99.46 a168.88 168.88 0 1 0 337.76 0 a168.88 168.88 0 1 0 -337.76 0z" fill="rgba(28, 83, 142, 0.4)" class="triangle-float3"></path><path d="M191.9052170769637 362.8497417248843L333.7599916422197 357.8960638409871 328.8063137583224 216.04128927573115 186.95153919306648 220.99496715962837z" fill="rgba(28, 83, 142, 0.4)" class="triangle-float3"></path><path d="M1180.9860713669216 454.6900263425425L1293.8557308364786 359.981136710532 1086.277181734911 341.82036687298546z" fill="rgba(28, 83, 142, 0.4)" class="triangle-float2"></path></g><defs><mask id="SvgjsMask1033"><rect width="1440" height="560" fill="#ffffff"></rect></mask><linearGradient x1="15.28%" y1="-39.29%" x2="84.72%" y2="139.29%" gradientUnits="userSpaceOnUse" id="SvgjsLinearGradient1034"><stop stop-color="#0e2a47" offset="0"></stop><stop stop-color="#00459e" offset="1"></stop></linearGradient><style>
            @keyframes float1 {
                0%{transform: translate(0, 0)}
                50%{transform: translate(-10px, 0)}
                100%{transform: translate(0, 0)}
            }

            .triangle-float1 {
                animation: float1 5s infinite;
            }

            @keyframes float2 {
                0%{transform: translate(0, 0)}
                50%{transform: translate(-5px, -5px)}
                100%{transform: translate(0, 0)}
            }

            .triangle-float2 {
                animation: float2 4s infinite;
            }

            @keyframes float3 {
                0%{transform: translate(0, 0)}
                50%{transform: translate(0, -10px)}
                100%{transform: translate(0, 0)}
            }

            .triangle-float3 {
                animation: float3 6s infinite;
            }
        </style></defs></svg>