<svg xmlns="http://www.w3.org/2000/svg" version="1.1" xmlns:xlink="http://www.w3.org/1999/xlink" xmlns:svgjs="http://svgjs.com/svgjs" width="1440" height="560" preserveAspectRatio="none" viewBox="0 0 1440 560"><g mask="url(&quot;#SvgjsMask1021&quot;)" fill="none"><rect width="1440" height="560" x="0" y="0" fill="url(#SvgjsLinearGradient1022)"></rect><path d="M76.3653817246132 245.8523953496815L-19.6220834284305 185.74549758163568-24.803430478663955 284.61148887369797z" fill="rgba(28, 83, 142, 0.4)" class="triangle-float1"></path><path d="M1220.31 16.77 a180.1 180.1 0 1 0 360.2 0 a180.1 180.1 0 1 0 -360.2 0z" fill="rgba(28, 83, 142, 0.4)" class="triangle-float1"></path><path d="M153.48747127626274 98.52898136801161L97.22157439572659 18.172952890516655 4.8204801197522045 142.74981245006833z" fill="rgba(28, 83, 142, 0.4)" class="triangle-float2"></path><path d="M528.0732288047307 575.7775235733845L634.9542769101305 568.303672622193 627.4804259589389 461.4226245167931 520.5993778535391 468.89647546798477z" fill="rgba(28, 83, 142, 0.4)" class="triangle-float3"></path><path d="M469.18731122532364 314.6179104113867L610.0026960651824 386.3669326676466 681.7517183214422 245.55154782778794 540.9363334815836 173.80252557152798z" fill="rgba(28, 83, 142, 0.4)" class="triangle-float1"></path><path d="M146.167,375.923C189.37,379.007,230.14,351.084,249.342,312.26C266.808,276.945,250.893,237.719,231.475,203.439C211.668,168.472,186.298,132.238,146.167,130.121C103.177,127.854,62.211,154.666,43.706,193.536C27.139,228.336,46.818,265.549,65.695,299.152C85.156,333.794,106.534,373.094,146.167,375.923" fill="rgba(28, 83, 142, 0.4)" class="triangle-float3"></path><path d="M58.95 147.29 a167.27 167.27 0 1 0 334.54 0 a167.27 167.27 0 1 0 -334.54 0z" fill="rgba(28, 83, 142, 0.4)" class="triangle-float3"></path><path d="M1420.111,681.862C1473.123,682.395,1527.48,664.636,1554.553,619.055C1582.118,572.644,1574.633,514.546,1547.042,468.15C1520.104,422.851,1472.808,393.859,1420.111,392.977C1365.814,392.069,1312.889,416.824,1285.603,463.776C1258.192,510.941,1261.63,569.968,1290.267,616.399C1317.539,660.616,1368.163,681.34,1420.111,681.862" fill="rgba(28, 83, 142, 0.4)" class="triangle-float1"></path><path d="M1187.42 138.46 a141.79 141.79 0 1 0 283.58 0 a141.79 141.79 0 1 0 -283.58 0z" fill="rgba(28, 83, 142, 0.4)" class="triangle-float3"></path></g><defs><mask id="SvgjsMask1021"><rect width="1440" height="560" fill="#ffffff"></rect></mask><linearGradient x1="15.28%" y1="-39.29%" x2="84.72%" y2="139.29%" gradientUnits="userSpaceOnUse" id="SvgjsLinearGradient1022"><stop stop-color="#0e2a47" offset="0"></stop><stop stop-color="#00459e" offset="1"></stop></linearGradient><style>
            @keyframes float1 {
                0%{transform: translate(0, 0)}
                50%{transform: translate(-10px, 0)}
                100%{transform: translate(0, 0)}
            }

            .triangle-float1 {
                animation: float1 5s infinite;
            }

            @keyframes float2 {
                0%{transform: translate(0, 0)}
                50%{transform: translate(-5px, -5px)}
                100%{transform: translate(0, 0)}
            }

            .triangle-float2 {
                animation: float2 4s infinite;
            }

            @keyframes float3 {
                0%{transform: translate(0, 0)}
                50%{transform: translate(0, -10px)}
                100%{transform: translate(0, 0)}
            }

            .triangle-float3 {
                animation: float3 6s infinite;
            }
        </style></defs></svg>