<svg xmlns="http://www.w3.org/2000/svg" version="1.1" xmlns:xlink="http://www.w3.org/1999/xlink" xmlns:svgjs="http://svgjs.com/svgjs" width="1440" height="560" preserveAspectRatio="none" viewBox="0 0 1440 560"><g mask="url(&quot;#SvgjsMask1019&quot;)" fill="none"><rect width="1440" height="560" x="0" y="0" fill="url(#SvgjsLinearGradient1020)"></rect><path d="M158.10086251637276 103.11166368225724L146.79028657933233-58.63710796455413-14.958485067479046-47.32653202751371-3.64790913043862 114.42223961929767z" fill="rgba(28, 83, 142, 0.4)" class="triangle-float1"></path><path d="M863.1978283247473 457.94196221133035L959.9676353671239 469.82380047768737 971.8494736334809 373.0539934353109 875.0796665911043 361.1721551689538z" fill="rgba(28, 83, 142, 0.4)" class="triangle-float3"></path><path d="M603.135,495.75C654.187,496.265,707.043,479.635,732.72,435.507C758.519,391.17,747.998,336.276,721.478,292.366C695.948,250.095,652.514,220.368,603.135,220.951C554.671,221.523,514.174,253.367,489.536,295.105C464.416,337.659,453.653,389.938,477.999,432.939C502.645,476.469,553.115,495.246,603.135,495.75" fill="rgba(28, 83, 142, 0.4)" class="triangle-float2"></path><path d="M228.8825189051152 78.92149875734628L328.4801279543875 159.57405230984557 409.1326815068868 59.97644326057328 309.5350724576145-20.67611029192601z" fill="rgba(28, 83, 142, 0.4)" class="triangle-float2"></path><path d="M410.11 143.66 a99.51 99.51 0 1 0 199.02 0 a99.51 99.51 0 1 0 -199.02 0z" fill="rgba(28, 83, 142, 0.4)" class="triangle-float2"></path><path d="M1498.193,300.845C1544.352,298.841,1581.24,265.928,1603.102,225.226C1623.691,186.894,1625.561,141.36,1604.225,103.438C1582.467,64.767,1542.543,40.163,1498.193,38.769C1451.224,37.293,1404.752,56.475,1379.952,96.39C1353.794,138.491,1351.41,192.169,1376.224,235.075C1401.009,277.931,1448.733,302.992,1498.193,300.845" fill="rgba(28, 83, 142, 0.4)" class="triangle-float3"></path><path d="M750.9402802933982 344.441504510446L749.1568302252585 446.61529048454366 851.3306161993562 448.39874055268336 853.1140662674959 346.2249545785857z" fill="rgba(28, 83, 142, 0.4)" class="triangle-float2"></path><path d="M1013.5810766768268 343.2835355686643L931.4586428391207 258.2432658874592 846.4183731579155 340.3656997251653 928.5408069956217 425.40596940637045z" fill="rgba(28, 83, 142, 0.4)" class="triangle-float2"></path><path d="M976.5403430958017 475.3496206655769L1003.521712687802 629.2259645152644 1109.652110991431 543.2832625323591z" fill="rgba(28, 83, 142, 0.4)" class="triangle-float2"></path></g><defs><mask id="SvgjsMask1019"><rect width="1440" height="560" fill="#ffffff"></rect></mask><linearGradient x1="15.28%" y1="-39.29%" x2="84.72%" y2="139.29%" gradientUnits="userSpaceOnUse" id="SvgjsLinearGradient1020"><stop stop-color="#0e2a47" offset="0"></stop><stop stop-color="#00459e" offset="1"></stop></linearGradient><style>
            @keyframes float1 {
                0%{transform: translate(0, 0)}
                50%{transform: translate(-10px, 0)}
                100%{transform: translate(0, 0)}
            }

            .triangle-float1 {
                animation: float1 5s infinite;
            }

            @keyframes float2 {
                0%{transform: translate(0, 0)}
                50%{transform: translate(-5px, -5px)}
                100%{transform: translate(0, 0)}
            }

            .triangle-float2 {
                animation: float2 4s infinite;
            }

            @keyframes float3 {
                0%{transform: translate(0, 0)}
                50%{transform: translate(0, -10px)}
                100%{transform: translate(0, 0)}
            }

            .triangle-float3 {
                animation: float3 6s infinite;
            }
        </style></defs></svg>