<svg xmlns="http://www.w3.org/2000/svg" version="1.1" xmlns:xlink="http://www.w3.org/1999/xlink" xmlns:svgjs="http://svgjs.com/svgjs" width="1440" height="560" preserveAspectRatio="none" viewBox="0 0 1440 560"><g mask="url(&quot;#SvgjsMask1027&quot;)" fill="none"><rect width="1440" height="560" x="0" y="0" fill="url(#SvgjsLinearGradient1028)"></rect><path d="M501.5 80.72 a111.66 111.66 0 1 0 223.32 0 a111.66 111.66 0 1 0 -223.32 0z" fill="rgba(28, 83, 142, 0.4)" class="triangle-float1"></path><path d="M522.9098651464042 499.22581144913954L450.30980194361996 356.74016470701736 307.8241552014978 429.34022790980157 380.424218404282 571.8258746519238z" fill="rgba(28, 83, 142, 0.4)" class="triangle-float2"></path><path d="M1339.266,117.23C1365.779,115.573,1386.086,95.486,1398.139,71.813C1409.012,50.459,1407.974,25.815,1396.532,4.76C1384.489,-17.401,1364.407,-34.501,1339.266,-36.526C1310.148,-38.872,1278.955,-30.706,1263.427,-5.963C1247.082,20.083,1249.978,53.879,1266.098,80.065C1281.468,105.032,1310.004,119.059,1339.266,117.23" fill="rgba(28, 83, 142, 0.4)" class="triangle-float3"></path><path d="M824.8091284904879 497.4413134603637L806.7801567284482 582.2609568549923 943.0241077014109 566.8945928007374z" fill="rgba(28, 83, 142, 0.4)" class="triangle-float1"></path><path d="M889.78 475.27 a148.45 148.45 0 1 0 296.9 0 a148.45 148.45 0 1 0 -296.9 0z" fill="rgba(28, 83, 142, 0.4)" class="triangle-float2"></path><path d="M261.241,405.087C281.353,405.561,303.304,402.839,314.188,385.92C325.784,367.895,323.809,343.943,312.144,325.962C301.388,309.382,280.982,303.381,261.241,304.307C243.218,305.152,227.448,315.014,217.986,330.377C207.975,346.63,202.886,367,212.451,383.52C222,400.013,242.188,404.638,261.241,405.087" fill="rgba(28, 83, 142, 0.4)" class="triangle-float3"></path><path d="M1210.531,591.837C1251.722,593.431,1289.043,566.851,1308.146,530.323C1325.985,496.212,1317.445,456.679,1298.839,422.98C1279.438,387.842,1250.628,351.723,1210.531,353.529C1172.079,355.261,1152.298,395.972,1135.004,430.359C1120.011,460.17,1111.042,493.016,1125.18,523.242C1141.754,558.678,1171.44,590.324,1210.531,591.837" fill="rgba(28, 83, 142, 0.4)" class="triangle-float1"></path><path d="M602.085,607.411C631.406,607.28,655.595,586.262,669.327,560.356C682.163,536.141,679.826,508.23,667.682,483.661C653.679,455.331,633.626,426.283,602.085,424.318C567.968,422.193,535.902,443.923,520.621,474.5C506.653,502.449,517.469,534.32,533.797,560.959C549.216,586.116,572.579,607.542,602.085,607.411" fill="rgba(28, 83, 142, 0.4)" class="triangle-float2"></path><path d="M164.56594334892452 26.969390222916942L34.8449354787663-98.5398668203106-5.992842505614021 53.86879548561443z" fill="rgba(28, 83, 142, 0.4)" class="triangle-float1"></path></g><defs><mask id="SvgjsMask1027"><rect width="1440" height="560" fill="#ffffff"></rect></mask><linearGradient x1="15.28%" y1="-39.29%" x2="84.72%" y2="139.29%" gradientUnits="userSpaceOnUse" id="SvgjsLinearGradient1028"><stop stop-color="#0e2a47" offset="0"></stop><stop stop-color="#00459e" offset="1"></stop></linearGradient><style>
            @keyframes float1 {
                0%{transform: translate(0, 0)}
                50%{transform: translate(-10px, 0)}
                100%{transform: translate(0, 0)}
            }

            .triangle-float1 {
                animation: float1 5s infinite;
            }

            @keyframes float2 {
                0%{transform: translate(0, 0)}
                50%{transform: translate(-5px, -5px)}
                100%{transform: translate(0, 0)}
            }

            .triangle-float2 {
                animation: float2 4s infinite;
            }

            @keyframes float3 {
                0%{transform: translate(0, 0)}
                50%{transform: translate(0, -10px)}
                100%{transform: translate(0, 0)}
            }

            .triangle-float3 {
                animation: float3 6s infinite;
            }
        </style></defs></svg>