<svg xmlns="http://www.w3.org/2000/svg" version="1.1" xmlns:xlink="http://www.w3.org/1999/xlink" xmlns:svgjs="http://svgjs.com/svgjs" width="1440" height="560" preserveAspectRatio="none" viewBox="0 0 1440 560"><g mask="url(&quot;#SvgjsMask1023&quot;)" fill="none"><rect width="1440" height="560" x="0" y="0" fill="url(#SvgjsLinearGradient1024)"></rect><path d="M228.9115830992849 351.881110635256L352.5453580247555 299.4016867464672 176.43215921049614 228.2473357097854z" fill="rgba(28, 83, 142, 0.4)" class="triangle-float3"></path><path d="M294.178,402.58C329.911,399.967,351.72,367.781,370.043,336.993C388.992,305.152,411.09,268.466,393.352,235.934C375.183,202.611,332.102,196.341,294.178,197.852C259.334,199.241,226.702,214.017,207.81,243.328C187.102,275.457,178.083,316.098,196.306,349.699C215.253,384.636,254.54,405.479,294.178,402.58" fill="rgba(28, 83, 142, 0.4)" class="triangle-float1"></path><path d="M958.8403209894416 569.0835179921839L1022.535648235991 458.75997499643427 912.2121052402413 395.06464774988495 848.5167779936919 505.38819074563463z" fill="rgba(28, 83, 142, 0.4)" class="triangle-float2"></path><path d="M1189.1627747054183 279.64973770527024L1222.9983255783586 390.32083787588067 1299.8338748760289 245.8141868323299z" fill="rgba(28, 83, 142, 0.4)" class="triangle-float2"></path><path d="M191.71441084049007 429.25083512658466L110.45893437090103 569.9894487651303 251.19754800944668 651.2449252347194 332.4530244790357 510.5063115961737z" fill="rgba(28, 83, 142, 0.4)" class="triangle-float3"></path><path d="M541.615,626.466C571.582,625.214,597.701,609.68,614.524,584.849C634.159,555.867,651.521,519.711,634.761,488.977C617.565,457.444,577.472,449.077,541.615,451.153C509.575,453.008,481.977,471.27,465.447,498.779C448.335,527.256,440.311,562.884,457.331,591.416C474.038,619.423,509.031,627.827,541.615,626.466" fill="rgba(28, 83, 142, 0.4)" class="triangle-float1"></path><path d="M170.732,294.985C206.137,294.576,240.915,279.896,258.656,249.254C276.43,218.554,271.322,181.353,254.649,150.042C236.732,116.394,208.717,87.355,170.732,84.138C126.927,80.428,79.074,94.823,57.966,133.386C37.408,170.943,54.716,216.217,79.217,251.328C99.947,281.035,134.509,295.404,170.732,294.985" fill="rgba(28, 83, 142, 0.4)" class="triangle-float1"></path><path d="M682.5533936339802-22.57042467665029L696.033440247984 133.2170665996578 809.3559373777084 56.78007713580715z" fill="rgba(28, 83, 142, 0.4)" class="triangle-float1"></path><path d="M446.68013974161113 417.7591177829816L324.1603063653094 482.7543696254963 425.8396261877364 548.7856919893386z" fill="rgba(28, 83, 142, 0.4)" class="triangle-float1"></path></g><defs><mask id="SvgjsMask1023"><rect width="1440" height="560" fill="#ffffff"></rect></mask><linearGradient x1="15.28%" y1="-39.29%" x2="84.72%" y2="139.29%" gradientUnits="userSpaceOnUse" id="SvgjsLinearGradient1024"><stop stop-color="#0e2a47" offset="0"></stop><stop stop-color="#00459e" offset="1"></stop></linearGradient><style>
            @keyframes float1 {
                0%{transform: translate(0, 0)}
                50%{transform: translate(-10px, 0)}
                100%{transform: translate(0, 0)}
            }

            .triangle-float1 {
                animation: float1 5s infinite;
            }

            @keyframes float2 {
                0%{transform: translate(0, 0)}
                50%{transform: translate(-5px, -5px)}
                100%{transform: translate(0, 0)}
            }

            .triangle-float2 {
                animation: float2 4s infinite;
            }

            @keyframes float3 {
                0%{transform: translate(0, 0)}
                50%{transform: translate(0, -10px)}
                100%{transform: translate(0, 0)}
            }

            .triangle-float3 {
                animation: float3 6s infinite;
            }
        </style></defs></svg>