<svg xmlns="http://www.w3.org/2000/svg" version="1.1" xmlns:xlink="http://www.w3.org/1999/xlink" xmlns:svgjs="http://svgjs.com/svgjs" width="1440" height="560" preserveAspectRatio="none" viewBox="0 0 1440 560"><g mask="url(&quot;#SvgjsMask1041&quot;)" fill="none"><rect width="1440" height="560" x="0" y="0" fill="url(#SvgjsLinearGradient1042)"></rect><path d="M1236.789,368.704C1284.205,368.344,1336.577,364.196,1361.764,324.022C1388.106,282.005,1377.294,227.998,1351.593,185.585C1326.906,144.846,1284.421,117.228,1236.789,117.782C1190.048,118.326,1151.047,148.41,1126.52,188.203C1100.479,230.452,1082.614,283.591,1108.487,325.943C1133.676,367.175,1188.473,369.07,1236.789,368.704" fill="rgba(28, 83, 142, 0.4)" class="triangle-float1"></path><path d="M370.92523422850826 105.79165726843067L361.9701184681096 3.4342157497921733 212.91151407035116 68.04561014970942z" fill="rgba(28, 83, 142, 0.4)" class="triangle-float3"></path><path d="M1537.306624591432 290.8689760673593L1408.757460022125 241.52357505535346 1359.4120590101193 370.07273962466036 1487.9612235794261 419.4181406366662z" fill="rgba(28, 83, 142, 0.4)" class="triangle-float2"></path><path d="M267.78891127560854 532.4030418769397L306.74957745158525 425.6760761243648 208.6541604338728 441.21286384711715z" fill="rgba(28, 83, 142, 0.4)" class="triangle-float3"></path><path d="M1183.126,329.518C1210.044,330.936,1239.231,324.532,1253.164,301.458C1267.453,277.795,1260.522,248.257,1246.625,224.361C1232.817,200.619,1210.591,181.088,1183.126,181.029C1155.576,180.97,1131.732,199.577,1119.155,224.088C1107.602,246.603,1111.674,273.061,1124.801,294.696C1137.39,315.444,1158.891,328.241,1183.126,329.518" fill="rgba(28, 83, 142, 0.4)" class="triangle-float2"></path><path d="M394.421,546.494C457.076,551.546,520.615,523.981,552.884,470.038C585.927,414.801,584.798,342.676,547.888,289.944C515.047,243.025,451.651,241.502,394.421,243.645C342.167,245.602,286.105,255.633,259.651,300.739C232.964,346.242,249.429,401.363,274.794,447.616C301.455,496.233,339.152,542.038,394.421,546.494" fill="rgba(28, 83, 142, 0.4)" class="triangle-float3"></path><path d="M1339.3083588928152 111.07113236647623L1387.9459039037708 245.09898088622663 1469.7153964000613 151.03394004399868z" fill="rgba(28, 83, 142, 0.4)" class="triangle-float3"></path><path d="M919.8766372990417 558.0961948704474L896.4633377075361 464.19057927767426 802.557722114763 487.6038788691799 825.9710217062685 581.5094944619531z" fill="rgba(28, 83, 142, 0.4)" class="triangle-float1"></path><path d="M-5.478,308.093C18.266,308.163,40.792,297.17,53.23,276.945C66.29,255.709,68.392,229.177,56.545,207.241C44.107,184.21,20.694,167.872,-5.478,168.242C-31.102,168.604,-52.425,186.368,-64.537,208.952C-75.961,230.253,-75.959,255.834,-63.589,276.6C-51.504,296.887,-29.092,308.023,-5.478,308.093" fill="rgba(28, 83, 142, 0.4)" class="triangle-float3"></path></g><defs><mask id="SvgjsMask1041"><rect width="1440" height="560" fill="#ffffff"></rect></mask><linearGradient x1="15.28%" y1="-39.29%" x2="84.72%" y2="139.29%" gradientUnits="userSpaceOnUse" id="SvgjsLinearGradient1042"><stop stop-color="#0e2a47" offset="0"></stop><stop stop-color="#00459e" offset="1"></stop></linearGradient><style>
            @keyframes float1 {
                0%{transform: translate(0, 0)}
                50%{transform: translate(-10px, 0)}
                100%{transform: translate(0, 0)}
            }

            .triangle-float1 {
                animation: float1 5s infinite;
            }

            @keyframes float2 {
                0%{transform: translate(0, 0)}
                50%{transform: translate(-5px, -5px)}
                100%{transform: translate(0, 0)}
            }

            .triangle-float2 {
                animation: float2 4s infinite;
            }

            @keyframes float3 {
                0%{transform: translate(0, 0)}
                50%{transform: translate(0, -10px)}
                100%{transform: translate(0, 0)}
            }

            .triangle-float3 {
                animation: float3 6s infinite;
            }
        </style></defs></svg>