<svg xmlns="http://www.w3.org/2000/svg" version="1.1" xmlns:xlink="http://www.w3.org/1999/xlink" xmlns:svgjs="http://svgjs.com/svgjs" width="1440" height="560" preserveAspectRatio="none" viewBox="0 0 1440 560"><g mask="url(&quot;#SvgjsMask1005&quot;)" fill="none"><rect width="1440" height="560" x="0" y="0" fill="url(#SvgjsLinearGradient1006)"></rect><path d="M968.388,301.436C1017.583,297.562,1055.549,261.857,1078.657,218.255C1100.141,177.717,1101.252,130.779,1080.52,89.852C1057.38,44.172,1019.487,3.899,968.388,0.578C911.939,-3.091,857.273,25.139,827.807,73.427C797.1,123.748,792.346,188.188,823.284,238.367C852.95,286.483,912.036,305.874,968.388,301.436" fill="rgba(28, 83, 142, 0.4)" class="triangle-float1"></path><path d="M1096.541,615.599C1141.487,615.211,1186.418,593.835,1205.847,553.303C1223.473,516.531,1201.564,476.602,1179.652,442.211C1159.921,411.243,1133.214,383.598,1096.541,381.744C1056.743,379.732,1019.177,399.578,997.478,433.001C973.556,469.849,962.968,516.604,983.918,555.219C1005.689,595.348,1050.889,615.993,1096.541,615.599" fill="rgba(28, 83, 142, 0.4)" class="triangle-float1"></path><path d="M677.9760595231633 446.239994748953L580.7842249318354 348.86273160430227 547.6339819308264 464.4713678628573z" fill="rgba(28, 83, 142, 0.4)" class="triangle-float1"></path><path d="M1218.819,699.909C1261.985,697.728,1293.322,664.228,1315.425,627.086C1338.206,588.804,1355.31,543.854,1335.399,504.003C1313.663,460.5,1267.446,433.146,1218.819,433.735C1171.115,434.313,1130.473,465.219,1107.028,506.768C1084.017,547.548,1080.224,597.262,1103.68,637.787C1127.095,678.24,1172.138,702.268,1218.819,699.909" fill="rgba(28, 83, 142, 0.4)" class="triangle-float2"></path><path d="M204.90745330337305-26.6513839709122L118.83965564992552 43.04494434110833 188.53598396194604 129.11274199455585 274.6037816153936 59.41641368253533z" fill="rgba(28, 83, 142, 0.4)" class="triangle-float1"></path><path d="M78.767,609.625C118.585,609.654,154.697,588.26,175.538,554.332C197.473,518.622,206.173,473.288,184.572,437.375C163.476,402.302,119.684,394.427,78.767,393.446C35.446,392.408,-13.896,394.933,-36.204,432.083C-58.917,469.907,-41.742,517.158,-17.76,554.191C3.856,587.571,38.999,609.596,78.767,609.625" fill="rgba(28, 83, 142, 0.4)" class="triangle-float2"></path></g><defs><mask id="SvgjsMask1005"><rect width="1440" height="560" fill="#ffffff"></rect></mask><linearGradient x1="15.28%" y1="-39.29%" x2="84.72%" y2="139.29%" gradientUnits="userSpaceOnUse" id="SvgjsLinearGradient1006"><stop stop-color="#0e2a47" offset="0"></stop><stop stop-color="#00459e" offset="1"></stop></linearGradient><style>
            @keyframes float1 {
                0%{transform: translate(0, 0)}
                50%{transform: translate(-10px, 0)}
                100%{transform: translate(0, 0)}
            }

            .triangle-float1 {
                animation: float1 5s infinite;
            }

            @keyframes float2 {
                0%{transform: translate(0, 0)}
                50%{transform: translate(-5px, -5px)}
                100%{transform: translate(0, 0)}
            }

            .triangle-float2 {
                animation: float2 4s infinite;
            }

            @keyframes float3 {
                0%{transform: translate(0, 0)}
                50%{transform: translate(0, -10px)}
                100%{transform: translate(0, 0)}
            }

            .triangle-float3 {
                animation: float3 6s infinite;
            }
        </style></defs></svg>