<svg xmlns="http://www.w3.org/2000/svg" version="1.1" xmlns:xlink="http://www.w3.org/1999/xlink" xmlns:svgjs="http://svgjs.com/svgjs" width="1440" height="560" preserveAspectRatio="none" viewBox="0 0 1440 560"><g mask="url(&quot;#SvgjsMask1067&quot;)" fill="none"><rect width="1440" height="560" x="0" y="0" fill="url(#SvgjsLinearGradient1068)"></rect><path d="M834.375,312.125C877.111,312.875,912.227,281.076,932.241,243.308C950.939,208.024,948.848,166.796,930.062,131.559C909.953,93.839,877.117,60.216,834.375,59.735C790.992,59.246,754.619,90.726,734.879,129.361C716.859,164.63,723.348,205.187,742.285,239.972C762.269,276.681,792.585,311.391,834.375,312.125" fill="rgba(28, 83, 142, 0.4)" class="triangle-float3"></path><path d="M522.91 78.83 a143.77 143.77 0 1 0 287.54 0 a143.77 143.77 0 1 0 -287.54 0z" fill="rgba(28, 83, 142, 0.4)" class="triangle-float3"></path><path d="M737.353,509.77C774.035,510.43,809.754,496.057,829.989,465.454C852.549,431.333,863.689,386.23,841.941,351.586C821.069,318.336,776.564,315.968,737.353,317.886C702.302,319.601,667.225,330.968,649.103,361.02C630.43,391.985,631.863,431.125,650.313,462.223C668.392,492.697,701.926,509.133,737.353,509.77" fill="rgba(28, 83, 142, 0.4)" class="triangle-float3"></path><path d="M16.755488604181895 23.823237657373916L89.36586416588705 160.38349263500933 225.92611914352247 87.77311707330418 153.31574358181732-48.78713790433124z" fill="rgba(28, 83, 142, 0.4)" class="triangle-float1"></path><path d="M63.11 334.47 a168.88 168.88 0 1 0 337.76 0 a168.88 168.88 0 1 0 -337.76 0z" fill="rgba(28, 83, 142, 0.4)" class="triangle-float2"></path><path d="M-106.37 249.48 a150.52 150.52 0 1 0 301.04 0 a150.52 150.52 0 1 0 -301.04 0z" fill="rgba(28, 83, 142, 0.4)" class="triangle-float2"></path><path d="M218.28710846958836 349.72546817116654L195.8449350333709 439.7361094962522 342.0819837391082 428.3940489880356z" fill="rgba(28, 83, 142, 0.4)" class="triangle-float3"></path><path d="M931.5187897076731 16.511855133525728L795.5337442952921-12.528137904053082 831.0723066303229 103.71326176664418z" fill="rgba(28, 83, 142, 0.4)" class="triangle-float2"></path><path d="M1310.4904477280324 105.18028074870547L1229.7353560664278 146.32705512654834 1351.6372221058753 185.93537241031004z" fill="rgba(28, 83, 142, 0.4)" class="triangle-float3"></path></g><defs><mask id="SvgjsMask1067"><rect width="1440" height="560" fill="#ffffff"></rect></mask><linearGradient x1="15.28%" y1="-39.29%" x2="84.72%" y2="139.29%" gradientUnits="userSpaceOnUse" id="SvgjsLinearGradient1068"><stop stop-color="#0e2a47" offset="0"></stop><stop stop-color="#00459e" offset="1"></stop></linearGradient><style>
            @keyframes float1 {
                0%{transform: translate(0, 0)}
                50%{transform: translate(-10px, 0)}
                100%{transform: translate(0, 0)}
            }

            .triangle-float1 {
                animation: float1 5s infinite;
            }

            @keyframes float2 {
                0%{transform: translate(0, 0)}
                50%{transform: translate(-5px, -5px)}
                100%{transform: translate(0, 0)}
            }

            .triangle-float2 {
                animation: float2 4s infinite;
            }

            @keyframes float3 {
                0%{transform: translate(0, 0)}
                50%{transform: translate(0, -10px)}
                100%{transform: translate(0, 0)}
            }

            .triangle-float3 {
                animation: float3 6s infinite;
            }
        </style></defs></svg>