<svg xmlns="http://www.w3.org/2000/svg" version="1.1" xmlns:xlink="http://www.w3.org/1999/xlink" xmlns:svgjs="http://svgjs.com/svgjs" width="1440" height="560" preserveAspectRatio="none" viewBox="0 0 1440 560"><g mask="url(&quot;#SvgjsMask1095&quot;)" fill="none"><rect width="1440" height="560" x="0" y="0" fill="url(#SvgjsLinearGradient1096)"></rect><path d="M-81.37 30.04 a179.05 179.05 0 1 0 358.1 0 a179.05 179.05 0 1 0 -358.1 0z" fill="rgba(28, 83, 142, 0.4)" class="triangle-float2"></path><path d="M709.85 345.37 a136.48 136.48 0 1 0 272.96 0 a136.48 136.48 0 1 0 -272.96 0z" fill="rgba(28, 83, 142, 0.4)" class="triangle-float2"></path><path d="M651.1980167089595 286.9351844295143L637.0839057907531 448.26021043158823 798.408931792827 462.3743213497946 812.5230427110334 301.0492953477207z" fill="rgba(28, 83, 142, 0.4)" class="triangle-float3"></path><path d="M-61.04 512.13 a167.09 167.09 0 1 0 334.18 0 a167.09 167.09 0 1 0 -334.18 0z" fill="rgba(28, 83, 142, 0.4)" class="triangle-float2"></path><path d="M592.32 166.96 a145.01 145.01 0 1 0 290.02 0 a145.01 145.01 0 1 0 -290.02 0z" fill="rgba(28, 83, 142, 0.4)" class="triangle-float3"></path><path d="M1329.4515921259147 399.1100539904081L1196.3934794901254 283.22158637179245 1164.3241322401504 434.09600303534546z" fill="rgba(28, 83, 142, 0.4)" class="triangle-float1"></path><path d="M422.135,648.199C478.877,652.814,541.182,643.741,572.836,596.423C607.468,544.654,607.704,474.07,573.395,422.086C541.788,374.196,479.445,365.245,422.135,368.088C370.659,370.641,319.601,390.72,294.811,435.905C270.801,479.667,282.977,532.129,308.651,574.936C333.473,616.322,374.035,644.287,422.135,648.199" fill="rgba(28, 83, 142, 0.4)" class="triangle-float3"></path><path d="M1256.536,476.428C1296.095,475.274,1330.196,451.406,1350.174,417.243C1370.366,382.713,1376.425,340.151,1356.514,305.458C1336.524,270.629,1296.665,255.627,1256.536,254.089C1212.952,252.418,1165.142,260.069,1142.337,297.248C1118.764,335.679,1128.701,384.976,1152.933,422.996C1175.316,458.116,1214.908,477.642,1256.536,476.428" fill="rgba(28, 83, 142, 0.4)" class="triangle-float1"></path><path d="M1169.506,641.432C1209.025,641.408,1243.611,619.16,1265.304,586.127C1289.754,548.895,1310.025,501.094,1286.507,463.267C1263.664,426.525,1212.618,428.416,1169.506,432.04C1133.982,435.026,1101.086,450.174,1082.246,480.438C1062.201,512.637,1055.435,552.896,1073.509,586.242C1092.36,621.022,1129.946,641.456,1169.506,641.432" fill="rgba(28, 83, 142, 0.4)" class="triangle-float2"></path></g><defs><mask id="SvgjsMask1095"><rect width="1440" height="560" fill="#ffffff"></rect></mask><linearGradient x1="15.28%" y1="-39.29%" x2="84.72%" y2="139.29%" gradientUnits="userSpaceOnUse" id="SvgjsLinearGradient1096"><stop stop-color="#0e2a47" offset="0"></stop><stop stop-color="#00459e" offset="1"></stop></linearGradient><style>
            @keyframes float1 {
                0%{transform: translate(0, 0)}
                50%{transform: translate(-10px, 0)}
                100%{transform: translate(0, 0)}
            }

            .triangle-float1 {
                animation: float1 5s infinite;
            }

            @keyframes float2 {
                0%{transform: translate(0, 0)}
                50%{transform: translate(-5px, -5px)}
                100%{transform: translate(0, 0)}
            }

            .triangle-float2 {
                animation: float2 4s infinite;
            }

            @keyframes float3 {
                0%{transform: translate(0, 0)}
                50%{transform: translate(0, -10px)}
                100%{transform: translate(0, 0)}
            }

            .triangle-float3 {
                animation: float3 6s infinite;
            }
        </style></defs></svg>