<svg xmlns="http://www.w3.org/2000/svg" version="1.1" xmlns:xlink="http://www.w3.org/1999/xlink" xmlns:svgjs="http://svgjs.com/svgjs" width="1440" height="560" preserveAspectRatio="none" viewBox="0 0 1440 560"><g mask="url(&quot;#SvgjsMask1025&quot;)" fill="none"><rect width="1440" height="560" x="0" y="0" fill="url(#SvgjsLinearGradient1026)"></rect><path d="M151.9511626672221 156.32177231100752L186.5509506975472 49.83457430032257 9.520259666357248 51.17849126017734z" fill="rgba(28, 83, 142, 0.4)" class="triangle-float1"></path><path d="M1374.008,646.973C1423.19,647.478,1462.879,612.264,1488.225,570.112C1514.54,526.348,1528.695,473.743,1505.538,428.23C1480.375,378.775,1429.467,343.801,1374.008,345.63C1321.035,347.377,1280.246,388.956,1256.691,436.436C1235.802,478.541,1240.906,526.748,1263.785,567.806C1287.385,610.159,1325.527,646.475,1374.008,646.973" fill="rgba(28, 83, 142, 0.4)" class="triangle-float2"></path><path d="M280.424,265.426C306.888,265.765,330.806,251.382,344.925,228.996C360.151,204.855,368.291,173.976,353.497,149.567C339.072,125.766,308.23,121.394,280.424,122.571C255.049,123.645,230.216,133.443,217.331,155.33C204.27,177.516,205.925,205.04,218.726,227.377C231.602,249.846,254.529,265.094,280.424,265.426" fill="rgba(28, 83, 142, 0.4)" class="triangle-float2"></path><path d="M460.949,361.353C487.948,362.138,513.189,347.251,526.552,323.778C539.779,300.543,538.241,272.15,524.934,248.961C511.563,225.66,487.804,210.191,460.949,209.459C432.758,208.69,403.939,220.44,390.619,245.297C377.852,269.122,387.624,297.031,401.633,320.148C415.006,342.215,435.157,360.603,460.949,361.353" fill="rgba(28, 83, 142, 0.4)" class="triangle-float2"></path><path d="M482.0859794235846 76.72141320235002L411.26672773997694 70.52553152064515 437.3825310592235 179.8523498869091z" fill="rgba(28, 83, 142, 0.4)" class="triangle-float3"></path><path d="M918.6900156487218 341.11802339100154L867.5590977666991 433.3606410210321 1010.9326332787523 392.24894127302423z" fill="rgba(28, 83, 142, 0.4)" class="triangle-float3"></path></g><defs><mask id="SvgjsMask1025"><rect width="1440" height="560" fill="#ffffff"></rect></mask><linearGradient x1="15.28%" y1="-39.29%" x2="84.72%" y2="139.29%" gradientUnits="userSpaceOnUse" id="SvgjsLinearGradient1026"><stop stop-color="#0e2a47" offset="0"></stop><stop stop-color="#00459e" offset="1"></stop></linearGradient><style>
            @keyframes float1 {
                0%{transform: translate(0, 0)}
                50%{transform: translate(-10px, 0)}
                100%{transform: translate(0, 0)}
            }

            .triangle-float1 {
                animation: float1 5s infinite;
            }

            @keyframes float2 {
                0%{transform: translate(0, 0)}
                50%{transform: translate(-5px, -5px)}
                100%{transform: translate(0, 0)}
            }

            .triangle-float2 {
                animation: float2 4s infinite;
            }

            @keyframes float3 {
                0%{transform: translate(0, 0)}
                50%{transform: translate(0, -10px)}
                100%{transform: translate(0, 0)}
            }

            .triangle-float3 {
                animation: float3 6s infinite;
            }
        </style></defs></svg>