<svg xmlns="http://www.w3.org/2000/svg" version="1.1" xmlns:xlink="http://www.w3.org/1999/xlink" xmlns:svgjs="http://svgjs.com/svgjs" width="1440" height="560" preserveAspectRatio="none" viewBox="0 0 1440 560"><g mask="url(&quot;#SvgjsMask1055&quot;)" fill="none"><rect width="1440" height="560" x="0" y="0" fill="url(#SvgjsLinearGradient1056)"></rect><path d="M393.52 488.14 a147.32 147.32 0 1 0 294.64 0 a147.32 147.32 0 1 0 -294.64 0z" fill="rgba(28, 83, 142, 0.4)" class="triangle-float2"></path><path d="M976.9190064393867 543.7544572742761L1033.8303536459193 415.92947859597257 906.0053749676159 359.0181313894399 849.0940277610832 486.8431100677434z" fill="rgba(28, 83, 142, 0.4)" class="triangle-float1"></path><path d="M1113.0850065267632 207.90015022849713L1030.929388218422 350.19785526577994 1173.2270932557049 432.35347357412104 1255.382711564046 290.0557685368383z" fill="rgba(28, 83, 142, 0.4)" class="triangle-float2"></path><path d="M68.93 479.22 a157.86 157.86 0 1 0 315.72 0 a157.86 157.86 0 1 0 -315.72 0z" fill="rgba(28, 83, 142, 0.4)" class="triangle-float1"></path><path d="M756.39 519 a152.29 152.29 0 1 0 304.58 0 a152.29 152.29 0 1 0 -304.58 0z" fill="rgba(28, 83, 142, 0.4)" class="triangle-float3"></path><path d="M941.81 258.95 a120.35 120.35 0 1 0 240.7 0 a120.35 120.35 0 1 0 -240.7 0z" fill="rgba(28, 83, 142, 0.4)" class="triangle-float3"></path><path d="M1114.2441962465 97.11982369545484L1175.4661778367483 222.64348773903816 1239.7678602900833 35.897842105206465z" fill="rgba(28, 83, 142, 0.4)" class="triangle-float2"></path><path d="M350.447,447.121C408.761,444.2,440.25,385.763,469.644,335.315C499.347,284.336,536.287,227.267,509.036,174.936C480.529,120.194,412.126,104.181,350.447,106.418C293.044,108.5,239.656,136.206,210.607,185.76C181.221,235.889,181.189,297.157,208.602,348.391C237.731,402.832,288.78,450.21,350.447,447.121" fill="rgba(28, 83, 142, 0.4)" class="triangle-float2"></path><path d="M905.36 347.6 a109.1 109.1 0 1 0 218.2 0 a109.1 109.1 0 1 0 -218.2 0z" fill="rgba(28, 83, 142, 0.4)" class="triangle-float1"></path></g><defs><mask id="SvgjsMask1055"><rect width="1440" height="560" fill="#ffffff"></rect></mask><linearGradient x1="15.28%" y1="-39.29%" x2="84.72%" y2="139.29%" gradientUnits="userSpaceOnUse" id="SvgjsLinearGradient1056"><stop stop-color="#0e2a47" offset="0"></stop><stop stop-color="#00459e" offset="1"></stop></linearGradient><style>
            @keyframes float1 {
                0%{transform: translate(0, 0)}
                50%{transform: translate(-10px, 0)}
                100%{transform: translate(0, 0)}
            }

            .triangle-float1 {
                animation: float1 5s infinite;
            }

            @keyframes float2 {
                0%{transform: translate(0, 0)}
                50%{transform: translate(-5px, -5px)}
                100%{transform: translate(0, 0)}
            }

            .triangle-float2 {
                animation: float2 4s infinite;
            }

            @keyframes float3 {
                0%{transform: translate(0, 0)}
                50%{transform: translate(0, -10px)}
                100%{transform: translate(0, 0)}
            }

            .triangle-float3 {
                animation: float3 6s infinite;
            }
        </style></defs></svg>