<svg xmlns="http://www.w3.org/2000/svg" version="1.1" xmlns:xlink="http://www.w3.org/1999/xlink" xmlns:svgjs="http://svgjs.com/svgjs" width="1440" height="560" preserveAspectRatio="none" viewBox="0 0 1440 560"><g mask="url(&quot;#SvgjsMask1011&quot;)" fill="none"><rect width="1440" height="560" x="0" y="0" fill="url(#SvgjsLinearGradient1012)"></rect><path d="M838.8656659163117 114.34687046790677L748.6927978977506 68.40149935854757 702.7474267883913 158.57436737710879 792.9202948069526 204.519738486468z" fill="rgba(28, 83, 142, 0.4)" class="triangle-float3"></path><path d="M1307.658084245545 424.79456391634017L1340.0611620931747 318.80887189147495 1201.6723922206797 392.39148606871044z" fill="rgba(28, 83, 142, 0.4)" class="triangle-float3"></path><path d="M726.9720199526355 408.56182543877605L577.1449077958058 405.94658346807125 574.529665825101 555.7736956249009 724.3567779819307 558.3889375956057z" fill="rgba(28, 83, 142, 0.4)" class="triangle-float1"></path><path d="M546.3744177273331 149.38700666780724L593.6453748127253 304.0033404288139 700.9907514883398 102.11604958241507z" fill="rgba(28, 83, 142, 0.4)" class="triangle-float3"></path><path d="M1370.957751795904 280.99569932547354L1298.6482466039513 200.68785791818442 1218.3404051966622 272.9973631101371 1290.649910388615 353.3052045174262z" fill="rgba(28, 83, 142, 0.4)" class="triangle-float3"></path><path d="M478.345,373.008C529.054,375.866,581.279,357.749,607.909,314.5C635.698,269.368,633.134,211.516,605.708,166.163C579.196,122.321,529.477,97.007,478.345,100.247C431.976,103.185,397.934,139.657,376.174,180.708C356.001,218.765,351.621,263.154,371.831,301.192C393.365,341.722,432.523,370.425,478.345,373.008" fill="rgba(28, 83, 142, 0.4)" class="triangle-float1"></path></g><defs><mask id="SvgjsMask1011"><rect width="1440" height="560" fill="#ffffff"></rect></mask><linearGradient x1="15.28%" y1="-39.29%" x2="84.72%" y2="139.29%" gradientUnits="userSpaceOnUse" id="SvgjsLinearGradient1012"><stop stop-color="#0e2a47" offset="0"></stop><stop stop-color="#00459e" offset="1"></stop></linearGradient><style>
            @keyframes float1 {
                0%{transform: translate(0, 0)}
                50%{transform: translate(-10px, 0)}
                100%{transform: translate(0, 0)}
            }

            .triangle-float1 {
                animation: float1 5s infinite;
            }

            @keyframes float2 {
                0%{transform: translate(0, 0)}
                50%{transform: translate(-5px, -5px)}
                100%{transform: translate(0, 0)}
            }

            .triangle-float2 {
                animation: float2 4s infinite;
            }

            @keyframes float3 {
                0%{transform: translate(0, 0)}
                50%{transform: translate(0, -10px)}
                100%{transform: translate(0, 0)}
            }

            .triangle-float3 {
                animation: float3 6s infinite;
            }
        </style></defs></svg>