<svg xmlns="http://www.w3.org/2000/svg" version="1.1" xmlns:xlink="http://www.w3.org/1999/xlink" xmlns:svgjs="http://svgjs.com/svgjs" width="1440" height="560" preserveAspectRatio="none" viewBox="0 0 1440 560"><g mask="url(&quot;#SvgjsMask1039&quot;)" fill="none"><rect width="1440" height="560" x="0" y="0" fill="url(#SvgjsLinearGradient1040)"></rect><path d="M-85.32 372.75 a106.63 106.63 0 1 0 213.26 0 a106.63 106.63 0 1 0 -213.26 0z" fill="rgba(28, 83, 142, 0.4)" class="triangle-float2"></path><path d="M41.41 115.66 a117.35 117.35 0 1 0 234.7 0 a117.35 117.35 0 1 0 -234.7 0z" fill="rgba(28, 83, 142, 0.4)" class="triangle-float1"></path><path d="M149.931,530.068C170.325,528.51,187.109,515.202,196.797,497.189C205.943,480.182,204.947,460.59,196.681,443.139C186.768,422.21,173.088,398.46,149.931,398.24C126.586,398.018,113.185,421.958,101.616,442.236C90.198,462.25,77.668,485.25,88.774,505.439C100.126,526.077,126.445,531.862,149.931,530.068" fill="rgba(28, 83, 142, 0.4)" class="triangle-float3"></path><path d="M576.4200423465874 248.45678427812413L608.9919149163404 343.0523709014714 703.5875015396878 310.48049833171837 671.0156289699347 215.88491170837108z" fill="rgba(28, 83, 142, 0.4)" class="triangle-float2"></path><path d="M-15.902052653492 235.4699144724102L103.90499839254707 347.1917969985064 215.62688091864322 227.3847459524673 95.81982987260417 115.66286342637115z" fill="rgba(28, 83, 142, 0.4)" class="triangle-float3"></path><path d="M268.32403891298196 27.516040854911285L175.590242861975 85.33973576314071 259.1443948418042 131.65455849202033z" fill="rgba(28, 83, 142, 0.4)" class="triangle-float2"></path><path d="M88.97569247698138 71.48119618973743L-9.07329474113022 169.34347573844545 107.33282854434498 202.72239446462638z" fill="rgba(28, 83, 142, 0.4)" class="triangle-float3"></path><path d="M1423.18,640.758C1480.862,643.74,1529.128,600.728,1557.104,550.196C1584.137,501.368,1588.177,442.058,1559.795,394.001C1531.859,346.699,1477.952,319.194,1423.18,323.429C1374.282,327.21,1341.557,369.168,1318.834,412.631C1298.129,452.234,1292.679,496.848,1311.268,537.488C1333.898,586.962,1368.849,637.949,1423.18,640.758" fill="rgba(28, 83, 142, 0.4)" class="triangle-float2"></path><path d="M664.7832233825751-37.429715651696284L641.9241350741319 125.2211491795077 827.4340882137791-14.570627343253033z" fill="rgba(28, 83, 142, 0.4)" class="triangle-float3"></path></g><defs><mask id="SvgjsMask1039"><rect width="1440" height="560" fill="#ffffff"></rect></mask><linearGradient x1="15.28%" y1="-39.29%" x2="84.72%" y2="139.29%" gradientUnits="userSpaceOnUse" id="SvgjsLinearGradient1040"><stop stop-color="#0e2a47" offset="0"></stop><stop stop-color="#00459e" offset="1"></stop></linearGradient><style>
            @keyframes float1 {
                0%{transform: translate(0, 0)}
                50%{transform: translate(-10px, 0)}
                100%{transform: translate(0, 0)}
            }

            .triangle-float1 {
                animation: float1 5s infinite;
            }

            @keyframes float2 {
                0%{transform: translate(0, 0)}
                50%{transform: translate(-5px, -5px)}
                100%{transform: translate(0, 0)}
            }

            .triangle-float2 {
                animation: float2 4s infinite;
            }

            @keyframes float3 {
                0%{transform: translate(0, 0)}
                50%{transform: translate(0, -10px)}
                100%{transform: translate(0, 0)}
            }

            .triangle-float3 {
                animation: float3 6s infinite;
            }
        </style></defs></svg>