<svg xmlns="http://www.w3.org/2000/svg" version="1.1" xmlns:xlink="http://www.w3.org/1999/xlink" xmlns:svgjs="http://svgjs.com/svgjs" width="1440" height="560" preserveAspectRatio="none" viewBox="0 0 1440 560"><g mask="url(&quot;#SvgjsMask1057&quot;)" fill="none"><rect width="1440" height="560" x="0" y="0" fill="url(#SvgjsLinearGradient1058)"></rect><path d="M1238.42 73.74 a113.28 113.28 0 1 0 226.56 0 a113.28 113.28 0 1 0 -226.56 0z" fill="rgba(28, 83, 142, 0.4)" class="triangle-float2"></path><path d="M983.86 216.18 a137.61 137.61 0 1 0 275.22 0 a137.61 137.61 0 1 0 -275.22 0z" fill="rgba(28, 83, 142, 0.4)" class="triangle-float1"></path><path d="M1224.552,295.121C1278.067,292.379,1324.823,260.152,1349.939,212.818C1373.532,168.355,1368.266,115.574,1342.887,72.105C1317.741,29.035,1274.414,-2.987,1224.552,-1.947C1176.193,-0.938,1140.959,36.399,1114.468,76.87C1084.098,123.267,1049.772,177.406,1074.745,226.917C1101.228,279.422,1165.823,298.13,1224.552,295.121" fill="rgba(28, 83, 142, 0.4)" class="triangle-float3"></path><path d="M474.336,231.234C487.2,231.006,499.587,226.259,506.77,215.585C514.931,203.456,519.16,187.855,512.16,175.021C504.927,161.759,489.424,155.381,474.336,156.121C460.443,156.802,449.31,166.349,442.434,178.441C435.65,190.372,432.749,205.024,439.847,216.771C446.757,228.206,460.977,231.471,474.336,231.234" fill="rgba(28, 83, 142, 0.4)" class="triangle-float3"></path><path d="M1083.4518343028103 89.36424933361613L1148.469262972106 185.756551351775 1244.861564990265 120.73912268247933 1179.8441363209693 24.34682066432046z" fill="rgba(28, 83, 142, 0.4)" class="triangle-float2"></path><path d="M1199.730590182223 441.7047791843579L1074.1637637711947 412.71539310546626 1045.174377692303 538.2822195164946 1170.7412041033315 567.2716055953862z" fill="rgba(28, 83, 142, 0.4)" class="triangle-float2"></path><path d="M816.318,657.784C867.172,656.117,906.279,618.787,932.212,575.011C958.786,530.151,974.79,476.731,951.08,430.294C925.429,380.055,872.668,345.45,816.318,348.023C763.379,350.44,726.932,395.311,701.306,441.697C676.749,486.149,662.609,538.238,686.469,583.068C711.616,630.315,762.825,659.538,816.318,657.784" fill="rgba(28, 83, 142, 0.4)" class="triangle-float2"></path><path d="M988.28,145.865C1028.097,148.938,1071.885,136.129,1090.593,100.847C1108.574,66.936,1087.164,29.006,1067.82,-4.146C1048.701,-36.913,1026.07,-71.163,988.28,-74.498C945.265,-78.294,898.863,-59.581,880.038,-20.718C862.633,15.214,888.339,53.44,910.093,86.918C929.154,116.252,953.401,143.173,988.28,145.865" fill="rgba(28, 83, 142, 0.4)" class="triangle-float3"></path><path d="M429.548,525.021C449.14,524.857,463.195,508.64,473.158,491.769C483.348,474.513,491.13,454.153,481.904,436.363C472.085,417.429,450.814,406.042,429.548,407.675C410.413,409.145,398.463,426.499,389.486,443.461C381.249,459.025,376.889,476.706,384.652,492.511C393.383,510.285,409.746,525.187,429.548,525.021" fill="rgba(28, 83, 142, 0.4)" class="triangle-float3"></path></g><defs><mask id="SvgjsMask1057"><rect width="1440" height="560" fill="#ffffff"></rect></mask><linearGradient x1="15.28%" y1="-39.29%" x2="84.72%" y2="139.29%" gradientUnits="userSpaceOnUse" id="SvgjsLinearGradient1058"><stop stop-color="#0e2a47" offset="0"></stop><stop stop-color="#00459e" offset="1"></stop></linearGradient><style>
            @keyframes float1 {
                0%{transform: translate(0, 0)}
                50%{transform: translate(-10px, 0)}
                100%{transform: translate(0, 0)}
            }

            .triangle-float1 {
                animation: float1 5s infinite;
            }

            @keyframes float2 {
                0%{transform: translate(0, 0)}
                50%{transform: translate(-5px, -5px)}
                100%{transform: translate(0, 0)}
            }

            .triangle-float2 {
                animation: float2 4s infinite;
            }

            @keyframes float3 {
                0%{transform: translate(0, 0)}
                50%{transform: translate(0, -10px)}
                100%{transform: translate(0, 0)}
            }

            .triangle-float3 {
                animation: float3 6s infinite;
            }
        </style></defs></svg>