<svg xmlns="http://www.w3.org/2000/svg" version="1.1" xmlns:xlink="http://www.w3.org/1999/xlink" xmlns:svgjs="http://svgjs.com/svgjs" width="1440" height="560" preserveAspectRatio="none" viewBox="0 0 1440 560"><g mask="url(&quot;#SvgjsMask1065&quot;)" fill="none"><rect width="1440" height="560" x="0" y="0" fill="url(#SvgjsLinearGradient1066)"></rect><path d="M1242.6 284.34 a158.8 158.8 0 1 0 317.6 0 a158.8 158.8 0 1 0 -317.6 0z" fill="rgba(28, 83, 142, 0.4)" class="triangle-float3"></path><path d="M-102.38 72.5 a156.12 156.12 0 1 0 312.24 0 a156.12 156.12 0 1 0 -312.24 0z" fill="rgba(28, 83, 142, 0.4)" class="triangle-float2"></path><path d="M1027.925268816379 413.2993271279124L966.9902860261968 445.69903219558216 1046.0573350227924 520.9016538470205z" fill="rgba(28, 83, 142, 0.4)" class="triangle-float3"></path><path d="M137.08 135.48 a115.29 115.29 0 1 0 230.58 0 a115.29 115.29 0 1 0 -230.58 0z" fill="rgba(28, 83, 142, 0.4)" class="triangle-float1"></path><path d="M194.12030454976247 7.5359419980289L232.03464239541367 111.70472910252943 336.2034294999142 73.79039125687822 298.28909165426296-30.378395847622297z" fill="rgba(28, 83, 142, 0.4)" class="triangle-float2"></path><path d="M359.22 376.1 a169.7 169.7 0 1 0 339.4 0 a169.7 169.7 0 1 0 -339.4 0z" fill="rgba(28, 83, 142, 0.4)" class="triangle-float1"></path><path d="M12.634,48.779C34.962,48.213,58.902,45.392,71.121,26.696C84.337,6.476,83.312,-19.985,71.259,-40.919C59.181,-61.898,36.815,-76.017,12.634,-74.891C-9.967,-73.839,-25.461,-55.183,-37.243,-35.868C-49.734,-15.391,-63.403,9.133,-51.226,29.798C-39.143,50.305,-11.16,49.382,12.634,48.779" fill="rgba(28, 83, 142, 0.4)" class="triangle-float2"></path><path d="M1317.707774162156 172.23180484400342L1243.8017737966507 311.2287756793052 1456.704744997458 246.13780520950888z" fill="rgba(28, 83, 142, 0.4)" class="triangle-float2"></path><path d="M832.05 126.69 a130.15 130.15 0 1 0 260.3 0 a130.15 130.15 0 1 0 -260.3 0z" fill="rgba(28, 83, 142, 0.4)" class="triangle-float3"></path></g><defs><mask id="SvgjsMask1065"><rect width="1440" height="560" fill="#ffffff"></rect></mask><linearGradient x1="15.28%" y1="-39.29%" x2="84.72%" y2="139.29%" gradientUnits="userSpaceOnUse" id="SvgjsLinearGradient1066"><stop stop-color="#0e2a47" offset="0"></stop><stop stop-color="#00459e" offset="1"></stop></linearGradient><style>
            @keyframes float1 {
                0%{transform: translate(0, 0)}
                50%{transform: translate(-10px, 0)}
                100%{transform: translate(0, 0)}
            }

            .triangle-float1 {
                animation: float1 5s infinite;
            }

            @keyframes float2 {
                0%{transform: translate(0, 0)}
                50%{transform: translate(-5px, -5px)}
                100%{transform: translate(0, 0)}
            }

            .triangle-float2 {
                animation: float2 4s infinite;
            }

            @keyframes float3 {
                0%{transform: translate(0, 0)}
                50%{transform: translate(0, -10px)}
                100%{transform: translate(0, 0)}
            }

            .triangle-float3 {
                animation: float3 6s infinite;
            }
        </style></defs></svg>