<svg xmlns="http://www.w3.org/2000/svg" version="1.1" xmlns:xlink="http://www.w3.org/1999/xlink" xmlns:svgjs="http://svgjs.com/svgjs" width="1440" height="560" preserveAspectRatio="none" viewBox="0 0 1440 560"><g mask="url(&quot;#SvgjsMask1019&quot;)" fill="none"><rect width="1440" height="560" x="0" y="0" fill="url(#SvgjsLinearGradient1020)"></rect><path d="M342.0757225152785 111.43605570358352L281.19295813226057 230.9252086858894 400.68211111456645 291.80797306890736 461.5648754975844 172.31882008660148z" fill="rgba(28, 83, 142, 0.4)" class="triangle-float2"></path><path d="M1353.8198735687106-32.400369009547376L1186.8478098221203 38.287343517916895 1311.7482587213767 135.87026898714257z" fill="rgba(28, 83, 142, 0.4)" class="triangle-float3"></path><path d="M486.6094919136983 31.45074262291327L492.57287351090963 145.23884200038353 606.3609728883798 139.27546040317225 600.3975912911686 25.48736102570199z" fill="rgba(28, 83, 142, 0.4)" class="triangle-float1"></path><path d="M411.365,275.526C441.197,276.608,472.026,265.986,487.094,240.216C502.279,214.245,496.592,182.021,481.123,156.218C466.134,131.216,440.512,114.395,411.365,113.894C381.329,113.378,351.828,127.439,337.328,153.748C323.252,179.287,329.441,210.129,344.59,235.046C359.083,258.884,383.485,274.515,411.365,275.526" fill="rgba(28, 83, 142, 0.4)" class="triangle-float3"></path><path d="M1048.4914006083045 266.52643161147085L1105.1362272644008 194.02435972597294 975.9893287228066 209.8816049553746z" fill="rgba(28, 83, 142, 0.4)" class="triangle-float3"></path><path d="M466.1210515326179 236.35629328292805L585.4995795744273 152.76654804767375 382.5313062973636 116.97776524111856z" fill="rgba(28, 83, 142, 0.4)" class="triangle-float1"></path></g><defs><mask id="SvgjsMask1019"><rect width="1440" height="560" fill="#ffffff"></rect></mask><linearGradient x1="15.28%" y1="-39.29%" x2="84.72%" y2="139.29%" gradientUnits="userSpaceOnUse" id="SvgjsLinearGradient1020"><stop stop-color="#0e2a47" offset="0"></stop><stop stop-color="#00459e" offset="1"></stop></linearGradient><style>
            @keyframes float1 {
                0%{transform: translate(0, 0)}
                50%{transform: translate(-10px, 0)}
                100%{transform: translate(0, 0)}
            }

            .triangle-float1 {
                animation: float1 5s infinite;
            }

            @keyframes float2 {
                0%{transform: translate(0, 0)}
                50%{transform: translate(-5px, -5px)}
                100%{transform: translate(0, 0)}
            }

            .triangle-float2 {
                animation: float2 4s infinite;
            }

            @keyframes float3 {
                0%{transform: translate(0, 0)}
                50%{transform: translate(0, -10px)}
                100%{transform: translate(0, 0)}
            }

            .triangle-float3 {
                animation: float3 6s infinite;
            }
        </style></defs></svg>