<svg xmlns="http://www.w3.org/2000/svg" version="1.1" xmlns:xlink="http://www.w3.org/1999/xlink" xmlns:svgjs="http://svgjs.com/svgjs" width="1440" height="560" preserveAspectRatio="none" viewBox="0 0 1440 560"><g mask="url(&quot;#SvgjsMask1061&quot;)" fill="none"><rect width="1440" height="560" x="0" y="0" fill="url(#SvgjsLinearGradient1062)"></rect><path d="M1011.234068776782 528.9763423044385L880.2674193757539 450.28364027337125 932.5413667457148 659.9429917054666z" fill="rgba(28, 83, 142, 0.4)" class="triangle-float3"></path><path d="M243.808,76.408C257.689,76.572,272.828,73.527,279.671,61.449C286.449,49.485,281.031,35.125,273.834,23.409C267.052,12.368,256.755,3.583,243.808,3.065C229.957,2.511,216.43,8.933,209.315,20.829C202.018,33.028,201.889,48.54,209.385,60.618C216.52,72.114,230.279,76.248,243.808,76.408" fill="rgba(28, 83, 142, 0.4)" class="triangle-float3"></path><path d="M167.48031544633153 260.68624393591404L95.94111143506245 297.13728901622954 186.38728106117026 386.2205724929754z" fill="rgba(28, 83, 142, 0.4)" class="triangle-float2"></path><path d="M775.7 430.99 a100.92 100.92 0 1 0 201.84 0 a100.92 100.92 0 1 0 -201.84 0z" fill="rgba(28, 83, 142, 0.4)" class="triangle-float2"></path><path d="M1276.802,569.009C1312.146,570.451,1349.775,564.477,1369.94,535.414C1392.841,502.408,1399.036,457.436,1377.931,423.254C1357.608,390.338,1315.385,381.767,1276.802,384.566C1243.288,386.997,1214.719,407,1198.248,436.288C1182.127,464.954,1179.21,500.013,1195.961,528.315C1212.43,556.14,1244.495,567.691,1276.802,569.009" fill="rgba(28, 83, 142, 0.4)" class="triangle-float1"></path><path d="M988.8718602066 11.747923310932805L1059.5096388830298 129.30892904093176 1106.432865936599-58.889855365497z" fill="rgba(28, 83, 142, 0.4)" class="triangle-float2"></path><path d="M349.25774048602057 16.959391269162406L261.7020133633705 80.57235059420012 400.8993159122521 180.09946161565637z" fill="rgba(28, 83, 142, 0.4)" class="triangle-float2"></path><path d="M1122.485844899728 295.3509408825448L1193.0365372790945 275.12085538067237 1127.4160628366026 179.40985956255867z" fill="rgba(28, 83, 142, 0.4)" class="triangle-float3"></path><path d="M473.831,248.68C518.984,249.208,561.755,228.121,585.689,189.83C611.17,149.063,617.516,97.787,594.542,55.557C570.603,11.553,523.922,-15.244,473.831,-15.78C422.79,-16.326,372.432,7.806,348.563,52.925C325.922,95.722,340.317,146.484,366.414,187.266C390.241,224.501,429.628,248.163,473.831,248.68" fill="rgba(28, 83, 142, 0.4)" class="triangle-float2"></path></g><defs><mask id="SvgjsMask1061"><rect width="1440" height="560" fill="#ffffff"></rect></mask><linearGradient x1="15.28%" y1="-39.29%" x2="84.72%" y2="139.29%" gradientUnits="userSpaceOnUse" id="SvgjsLinearGradient1062"><stop stop-color="#0e2a47" offset="0"></stop><stop stop-color="#00459e" offset="1"></stop></linearGradient><style>
            @keyframes float1 {
                0%{transform: translate(0, 0)}
                50%{transform: translate(-10px, 0)}
                100%{transform: translate(0, 0)}
            }

            .triangle-float1 {
                animation: float1 5s infinite;
            }

            @keyframes float2 {
                0%{transform: translate(0, 0)}
                50%{transform: translate(-5px, -5px)}
                100%{transform: translate(0, 0)}
            }

            .triangle-float2 {
                animation: float2 4s infinite;
            }

            @keyframes float3 {
                0%{transform: translate(0, 0)}
                50%{transform: translate(0, -10px)}
                100%{transform: translate(0, 0)}
            }

            .triangle-float3 {
                animation: float3 6s infinite;
            }
        </style></defs></svg>