<svg xmlns="http://www.w3.org/2000/svg" version="1.1" xmlns:xlink="http://www.w3.org/1999/xlink" xmlns:svgjs="http://svgjs.com/svgjs" width="1440" height="560" preserveAspectRatio="none" viewBox="0 0 1440 560"><g mask="url(&quot;#SvgjsMask1087&quot;)" fill="none"><rect width="1440" height="560" x="0" y="0" fill="url(#SvgjsLinearGradient1088)"></rect><path d="M-25.67 124.16 a112.15 112.15 0 1 0 224.3 0 a112.15 112.15 0 1 0 -224.3 0z" fill="rgba(28, 83, 142, 0.4)" class="triangle-float2"></path><path d="M1200.818,454.986C1218.189,454.998,1234.925,447.749,1244.225,433.077C1254.227,417.298,1257.265,396.997,1247.773,380.906C1238.405,365.025,1219.254,359.238,1200.818,359.489C1182.886,359.733,1165.129,366.703,1156.028,382.156C1146.803,397.82,1147.993,417.532,1157.516,433.016C1166.603,447.792,1183.471,454.974,1200.818,454.986" fill="rgba(28, 83, 142, 0.4)" class="triangle-float1"></path><path d="M1041.312,207.955C1059.084,207.975,1074.528,196.971,1083.531,181.648C1092.666,166.1,1095.895,146.57,1086.377,131.254C1077.258,116.58,1058.585,114.097,1041.312,113.71C1023.063,113.301,1002.227,113.64,992.61,129.155C982.668,145.194,989.338,165.5,999.259,181.552C1008.586,196.642,1023.572,207.935,1041.312,207.955" fill="rgba(28, 83, 142, 0.4)" class="triangle-float3"></path><path d="M-15.853028986447093 213.73764550004861L69.0771381699433 258.8958164096873 94.34931095620612 108.92148022028238z" fill="rgba(28, 83, 142, 0.4)" class="triangle-float1"></path><path d="M586.9125381892779 348.29232699090704L503.2883270249929 296.0381203567515 451.0341203908373 379.66233152103655 534.6583315551223 431.91653815519214z" fill="rgba(28, 83, 142, 0.4)" class="triangle-float1"></path><path d="M582.1053700607947 135.87781260018517L663.0696214723994-4.356384441494242 441.8711730191153 54.913561188580516z" fill="rgba(28, 83, 142, 0.4)" class="triangle-float3"></path><path d="M1111.469513521506 191.28176846489566L1247.5292937080535 154.82466024155423 1211.072185484712 18.764880055006756 1075.0124052981646 55.22198827834819z" fill="rgba(28, 83, 142, 0.4)" class="triangle-float3"></path><path d="M655.258373078537 438.35717779566346L655.258373078537 313.51128403158395 530.4124793144575 438.35717779566346z" fill="rgba(28, 83, 142, 0.4)" class="triangle-float2"></path><path d="M526.501,268.913C544.479,269.444,560.93,260.199,570.94,245.256C582.381,228.178,590.453,206.411,580.372,188.497C570.163,170.354,547.319,166.233,526.501,166.285C505.799,166.337,482.712,170.432,473.095,188.765C463.867,206.357,475.369,226.229,486.385,242.761C495.872,256.999,509.399,268.408,526.501,268.913" fill="rgba(28, 83, 142, 0.4)" class="triangle-float2"></path></g><defs><mask id="SvgjsMask1087"><rect width="1440" height="560" fill="#ffffff"></rect></mask><linearGradient x1="15.28%" y1="-39.29%" x2="84.72%" y2="139.29%" gradientUnits="userSpaceOnUse" id="SvgjsLinearGradient1088"><stop stop-color="#0e2a47" offset="0"></stop><stop stop-color="#00459e" offset="1"></stop></linearGradient><style>
            @keyframes float1 {
                0%{transform: translate(0, 0)}
                50%{transform: translate(-10px, 0)}
                100%{transform: translate(0, 0)}
            }

            .triangle-float1 {
                animation: float1 5s infinite;
            }

            @keyframes float2 {
                0%{transform: translate(0, 0)}
                50%{transform: translate(-5px, -5px)}
                100%{transform: translate(0, 0)}
            }

            .triangle-float2 {
                animation: float2 4s infinite;
            }

            @keyframes float3 {
                0%{transform: translate(0, 0)}
                50%{transform: translate(0, -10px)}
                100%{transform: translate(0, 0)}
            }

            .triangle-float3 {
                animation: float3 6s infinite;
            }
        </style></defs></svg>